<?xml version="1.0" encoding="UTF-8" standalone="no"?>
<!-- Created with Inkscape (http://www.inkscape.org/) -->

<svg
   xmlns:dc="http://purl.org/dc/elements/1.1/"
   xmlns:cc="http://creativecommons.org/ns#"
   xmlns:rdf="http://www.w3.org/1999/02/22-rdf-syntax-ns#"
   xmlns:svg="http://www.w3.org/2000/svg"
   xmlns="http://www.w3.org/2000/svg"
   xmlns:sodipodi="http://sodipodi.sourceforge.net/DTD/sodipodi-0.dtd"
   xmlns:inkscape="http://www.inkscape.org/namespaces/inkscape"
   width="420mm"
   height="297mm"
   viewBox="0 0 420 297"
   version="1.1"
   id="SVGRoot"
   inkscape:version="0.92.4 (5da689c313, 2019-01-14)"
   sodipodi:docname="Poster Hydroponie.svg"
   inkscape:export-filename="D:\Users\Pokang\Documents\GitHub\DMEther\Elements Visuels\Poster Objets Connectés.png"
   inkscape:export-xdpi="96"
   inkscape:export-ydpi="96">
  <defs
     id="defs66">
    <inkscape:perspective
       sodipodi:type="inkscape:persp3d"
       inkscape:vp_x="131.01276 : 115.78817 : 1"
       inkscape:vp_y="0 : 320.73214 : 0"
       inkscape:vp_z="265.72026 : 115.78817 : 1"
       inkscape:persp3d-origin="198.36651 : 99.911927 : 1"
       id="perspective6547" />
    <linearGradient
       gradientUnits="userSpaceOnUse"
       gradientTransform="translate(168)"
       y2="266.10985"
       x2="795.53026"
       y1="278.26925"
       x1="795.53026"
       id="a876bd90-f878-4b77-89d3-57d6c6545783">
      <stop
         id="stop133"
         stop-opacity="0.25"
         stop-color="gray"
         offset="0" />
      <stop
         id="stop135"
         stop-opacity="0.12"
         stop-color="gray"
         offset="0.53514" />
      <stop
         id="stop137"
         stop-opacity="0.1"
         stop-color="gray"
         offset="1" />
    </linearGradient>
  </defs>
  <sodipodi:namedview
     id="base"
     pagecolor="#ffffff"
     bordercolor="#666666"
     borderopacity="1.0"
     inkscape:pageopacity="0.0"
     inkscape:pageshadow="2"
     inkscape:zoom="1.7647059"
     inkscape:cx="352.46239"
     inkscape:cy="904.67183"
     inkscape:document-units="mm"
     inkscape:current-layer="layer1"
     showgrid="false"
     inkscape:window-width="1366"
     inkscape:window-height="705"
     inkscape:window-x="-8"
     inkscape:window-y="-8"
     inkscape:window-maximized="1"
     inkscape:snap-page="true"
     inkscape:snap-object-midpoints="false"
     inkscape:snap-center="false" />
  <metadata
     id="metadata69">
    <rdf:RDF>
      <cc:Work
         rdf:about="">
        <dc:format>image/svg+xml</dc:format>
        <dc:type
           rdf:resource="http://purl.org/dc/dcmitype/StillImage" />
        <dc:title></dc:title>
      </cc:Work>
    </rdf:RDF>
  </metadata>
  <g
     inkscape:label="Fond"
     inkscape:groupmode="layer"
     id="layer1"
     style="display:inline">
    <rect
       style="fill:#071214;fill-opacity:1;stroke-width:0.26435921"
       id="rect79"
       width="420"
       height="297"
       x="0.0010336339"
       y="-297.00095"
       transform="scale(1,-1)" />
    <rect
       style="fill:#3f3d56;fill-opacity:1;stroke:#00a651;stroke-width:1.01343489;stroke-miterlimit:4;stroke-dasharray:none;stroke-opacity:1"
       id="rect6105"
       width="111.31052"
       height="24.109318"
       x="14.156594"
       y="65.751007" />
    <rect
       y="65.752846"
       x="295.20181"
       height="24.105642"
       width="111.73147"
       id="rect6107"
       style="fill:#00a651;fill-opacity:1;stroke:#00a651;stroke-width:1.01527202;stroke-miterlimit:4;stroke-dasharray:none;stroke-opacity:1" />
    <rect
       y="-79.296402"
       x="126.6964"
       height="23.891272"
       width="166.94455"
       id="rect6109"
       style="fill:#00a651;fill-opacity:1;stroke:#00a651;stroke-width:1.23549533;stroke-miterlimit:4;stroke-dasharray:none;stroke-opacity:1"
       transform="scale(1,-1)" />
  </g>
  <g
     inkscape:groupmode="layer"
     id="layer5"
     inkscape:label="Texte1"
     style="display:inline">
    <flowRoot
       xml:space="preserve"
       id="flowRoot6135"
       style="font-style:normal;font-variant:normal;font-weight:normal;font-stretch:normal;font-size:24px;line-height:1.25;font-family:sans-serif;-inkscape-font-specification:'sans-serif, Normal';font-variant-ligatures:normal;font-variant-caps:normal;font-variant-numeric:normal;font-feature-settings:normal;text-align:start;letter-spacing:0px;word-spacing:0px;writing-mode:lr-tb;text-anchor:start;display:inline;fill:#ffffff;fill-opacity:1;stroke:none"
       transform="matrix(0.26458333,0,0,0.26458333,7.14375,5.2916667)"><flowRegion
         id="flowRegion6137"
         style="font-style:normal;font-variant:normal;font-weight:normal;font-stretch:normal;font-size:24px;font-family:sans-serif;-inkscape-font-specification:'sans-serif, Normal';font-variant-ligatures:normal;font-variant-caps:normal;font-variant-numeric:normal;font-feature-settings:normal;text-align:start;writing-mode:lr-tb;text-anchor:start;fill:#ffffff;fill-opacity:1"><rect
           id="rect6139"
           width="364.57925"
           height="680.89014"
           x="53.505238"
           y="339.62955"
           style="font-style:normal;font-variant:normal;font-weight:normal;font-stretch:normal;font-size:24px;font-family:sans-serif;-inkscape-font-specification:'sans-serif, Normal';font-variant-ligatures:normal;font-variant-caps:normal;font-variant-numeric:normal;font-feature-settings:normal;text-align:start;writing-mode:lr-tb;text-anchor:start;fill:#ffffff;fill-opacity:1" /></flowRegion><flowPara
         id="flowPara6161">1. Surveiller la bonne croissance des plantes à l'aide de 3 facteurs:</flowPara><flowPara
         id="flowPara6163">-Nutriments</flowPara><flowPara
         id="flowPara6165">-Acidité</flowPara><flowPara
         id="flowPara6167" /><flowPara
         id="flowPara6169">2. Pouvoir contrôler le dispositif à distance sur différents appareils.</flowPara><flowPara
         id="flowPara6171" /><flowPara
         id="flowPara6173">3.</flowPara></flowRoot>    <g
       id="g336"
       transform="matrix(0.06408683,0,0,0.06408683,32.560338,23.563996)">
      <polygon
         id="polygon144"
         points="560,652 0,652 0,4 560,178 "
         style="fill:#f2f2f2" />
      <rect
         id="rect146"
         height="205"
         width="440"
         y="423"
         x="52.129341"
         style="fill:#3f3d56" />
      <circle
         id="circle148"
         r="61.185741"
         cy="323.46295"
         cx="396.83865"
         style="fill:#6c63ff" />
      <line
         id="line150"
         stroke-miterlimit="10"
         y2="323.12613"
         x2="396.7858"
         y1="434.11356"
         x1="396.28445"
         style="fill:#3f3d56;stroke:#3f3d56;stroke-width:2;stroke-miterlimit:10" />
      <circle
         id="circle152"
         r="15.69535"
         cy="323.12613"
         cx="396.7858"
         style="fill:#3f3d56" />
      <path
         id="path154"
         transform="translate(-134.87066,-124)"
         d="m 531.34747,515.53 c 0,0 -2.02434,-48.23445 -48.01415,-42.83665"
         inkscape:connector-curvature="0"
         style="fill:#3f3d56" />
      <circle
         id="circle156"
         r="61.185741"
         cy="200.62056"
         cx="140.52351"
         style="fill:#6c63ff" />
      <line
         id="line158"
         stroke-miterlimit="10"
         y2="200.55292"
         x2="140.5804"
         y1="426.50259"
         x1="137.05901"
         style="fill:#3f3d56;stroke:#3f3d56;stroke-width:2;stroke-miterlimit:10" />
      <circle
         id="circle160"
         r="15.69535"
         cy="200.55292"
         cx="140.5804"
         style="fill:#3f3d56" />
      <path
         id="path162"
         transform="translate(-134.87066,-124)"
         d="m 274.455,388.46531 c 0,0 -1.49043,-48.2539 -47.53716,-43.36537"
         inkscape:connector-curvature="0"
         style="fill:#3f3d56" />
      <path
         id="path164"
         stroke-miterlimit="10"
         transform="translate(-134.87066,-124)"
         d="m 271.99689,546.18878 c 0,0 11.53376,-92.56819 -46.68631,-97.96047"
         inkscape:connector-curvature="0"
         style="fill:none;stroke:#3f3d56;stroke-width:2;stroke-miterlimit:10" />
      <circle
         id="circle166"
         r="15.69535"
         cy="324.2283"
         cx="90.439934"
         style="fill:#3f3d56" />
      <circle
         id="circle168"
         r="61.185741"
         cy="64.785263"
         cx="272.10294"
         style="fill:#6c63ff" />
      <line
         id="line170"
         stroke-miterlimit="10"
         y2="65.010033"
         x2="272.14133"
         y1="435.21585"
         x1="272.14133"
         style="fill:#3f3d56;stroke:#3f3d56;stroke-width:2;stroke-miterlimit:10" />
      <circle
         id="circle172"
         r="15.69535"
         cy="64.834641"
         cx="272.14133"
         style="fill:#3f3d56" />
      <circle
         id="circle174"
         r="15.69535"
         cy="332.68045"
         cx="223.93417"
         style="fill:#3f3d56" />
      <path
         id="path176"
         transform="translate(-134.87066,-124)"
         d="m 407.012,269.00726 c 0,0 -2.24219,-48.2248 -48.20715,-42.61932"
         inkscape:connector-curvature="0"
         style="fill:#3f3d56" />
      <path
         id="path178"
         transform="translate(-134.87066,-124)"
         d="m 407.012,405.71915 c 0,0 -2.24219,-48.22481 -48.20715,-42.61933"
         inkscape:connector-curvature="0"
         style="fill:#3f3d56" />
      <path
         id="path180"
         stroke-miterlimit="10"
         transform="translate(-134.87066,-124)"
         d="m 407.012,554.9015 c 0,0 10.08987,-93.73668 -48.20715,-98.22106"
         inkscape:connector-curvature="0"
         style="fill:none;stroke:#3f3d56;stroke-width:2;stroke-miterlimit:10" />
      <circle
         id="circle182"
         r="15.69535"
         cy="185.45226"
         cx="321.3114"
         style="fill:#3f3d56" />
      <path
         id="path184"
         stroke-miterlimit="10"
         transform="translate(-134.87066,-124)"
         d="m 407.97489,402.67332 c 0,0 -10.08989,-88.73668 48.20711,-93.22106"
         inkscape:connector-curvature="0"
         style="fill:none;stroke:#3f3d56;stroke-width:2;stroke-miterlimit:10" />
      <path
         id="path186"
         transform="translate(-134.87066,-124)"
         d="m 537.87066,274 a 22,22 0 1 1 22,-22 22.02489,22.02489 0 0 1 -22,22 z m 0,-42 a 20,20 0 1 0 20,20 20.02291,20.02291 0 0 0 -20,-20 z"
         inkscape:connector-curvature="0"
         style="fill:#3f3d56" />
      <path
         id="path188"
         transform="translate(-134.87066,-124)"
         d="m 191.87066,168 a 22,22 0 1 1 22,-22 22.02489,22.02489 0 0 1 -22,22 z m 0,-42 a 20,20 0 1 0 20,20 20.02291,20.02291 0 0 0 -20,-20 z"
         inkscape:connector-curvature="0"
         style="fill:#3f3d56" />
      <path
         id="path190"
         transform="translate(-134.87066,-124)"
         d="m 694.87066,494 a 22,22 0 1 1 22,-22 22.02489,22.02489 0 0 1 -22,22 z m 0,-42 a 20,20 0 1 0 20,20 20.02291,20.02291 0 0 0 -20,-20 z"
         inkscape:connector-curvature="0"
         style="fill:#3f3d56" />
      <circle
         id="circle192"
         r="13"
         cy="185"
         cx="467"
         style="fill:#3f3d56" />
      <circle
         id="circle194"
         r="13"
         cy="422"
         cx="569"
         style="fill:#3f3d56" />
      <path
         id="path196"
         transform="translate(-134.87066,-124)"
         d="M 694.87066,776 V 547 h -93 c 0,107.14325 -86.85676,194 -194,194 -107.14324,0 -194,-86.85675 -194,-194 h -79 v 229 z"
         inkscape:connector-curvature="0"
         style="fill:#3f3d56" />
      <path
         id="path198"
         transform="translate(-134.87066,-124)"
         d="m 407.87066,741 c 107.14324,0 194,-86.85675 194,-194 h -388 c 0,107.14325 86.85675,194 194,194 z"
         inkscape:connector-curvature="0"
         style="fill:#6c63ff" />
      <path
         id="path200"
         transform="translate(-134.87066,-124)"
         d="m 958.65376,628.55657 c 95.60774,-48.36148 133.90844,-165.07159 85.54694,-260.67934 l -346.22629,175.1324 c 48.36148,95.60776 165.07159,133.90842 260.67935,85.54694 z"
         inkscape:connector-curvature="0"
         style="fill:#3f3d56" />
      <path
         id="path202"
         transform="translate(-134.87066,-124)"
         d="m 965.66657,267.50313 c 0.64438,-0.4376 1.267,-0.90492 1.87258,-1.39328 a 28.71667,28.71667 0 0 1 -5.97125,10.20038 v 0 c -0.62606,0.68951 -1.29436,1.33483 -1.98093,1.959 -0.0136,-0.1581 -0.0288,-0.31625 -0.0371,-0.47421 -0.08,-1.52987 0.0315,-3.13979 0.0525,-4.71533 a 20.11536,20.11536 0 0 0 6.06423,-5.57656 z"
         inkscape:connector-curvature="0"
         style="fill:url(#a876bd90-f878-4b77-89d3-57d6c6545783)" />
      <path
         id="path204"
         transform="translate(-134.87066,-124)"
         d="m 975.04868,211.71081 a 17.64909,17.64909 0 1 0 -32.53453,-5.80218 28.33744,28.33744 0 0 0 -16.1198,26.95992 28.3726,28.3726 0 1 0 52.14589,15.48492 c 0,-0.45238 -0.0132,-0.90162 -0.0341,-1.34881 a 28.36938,28.36938 0 0 0 -3.45743,-35.29385 z"
         inkscape:connector-curvature="0"
         style="fill:#2f2e41" />
      <g
         id="g212"
         style="opacity:0.1">
        <path
           id="path206"
           transform="translate(-134.87066,-124)"
           d="m 942.27984,201.42853 c 0.079,-0.0387 0.15488,-0.0831 0.23431,-0.12113 -0.0565,-0.30556 -0.0952,-0.61625 -0.13569,-0.92639 -0.009,0.0648 -0.0205,0.12839 -0.0284,0.19345 -0.0345,0.28608 -0.0497,0.56972 -0.0702,0.85407 z"
           inkscape:connector-curvature="0" />
        <path
           id="path208"
           transform="translate(-134.87066,-124)"
           d="m 982.90252,230.31443 a 28.2502,28.2502 0 0 1 -4.39641,12.089 c 0.0209,0.44719 0.0341,0.89643 0.0341,1.34881 a 28.37037,28.37037 0 0 1 -56.64874,2.2869 c -0.0619,0.76388 -0.0998,1.53445 -0.0998,2.31433 a 28.374265,28.374265 0 1 0 56.74853,0 c 0,-0.45238 -0.0132,-0.90162 -0.0341,-1.34881 a 28.28662,28.28662 0 0 0 4.49953,-17.81526 c -0.0304,0.37454 -0.0576,0.74866 -0.10312,1.12503 z"
           inkscape:connector-curvature="0" />
        <path
           id="path210"
           transform="translate(-134.87066,-124)"
           d="m 977.37673,200.36177 a 17.5815,17.5815 0 0 1 -2.328,6.74781 c 0.49606,0.50953 0.96505,1.0435 1.42127,1.58809 a 17.65508,17.65508 0 0 0 0.90678,-8.3359 z"
           inkscape:connector-curvature="0" />
      </g>
      <path
         id="path214"
         transform="translate(-134.87066,-124)"
         d="m 860.7076,516.13452 a 12.9424,12.9424 0 0 0 1.28943,4.64236 5.13438,5.13438 0 0 0 3.76177,2.75411 7.59114,7.59114 0 0 0 4.15009,-1.20318 c 2.52613,-1.31934 5.14805,-2.85275 6.46657,-5.37931 1.27662,-2.44625 1.09294,-5.36533 0.87725,-8.11621 l -1.6964,-21.63629 c -4.08633,-0.11246 -8.19213,-0.11056 -12.275,0.11193 -4.04432,0.2204 -4.75445,1.17279 -4.1915,5.12134 1.12029,7.85806 0.57471,15.84049 1.61779,23.70525 z"
         inkscape:connector-curvature="0"
         style="fill:#fbbebe" />
      <path
         id="path216"
         transform="translate(-134.87066,-124)"
         d="m 980.6,530.7578 9.72395,15.70981 a 3.84118,3.84118 0 0 0 2.11476,1.98853 3.31892,3.31892 0 0 0 2.03177,-0.3529 c 3.24281,-1.41722 5.72502,-4.10854 8.10662,-6.7262 1.616,-1.77618 3.2862,-3.64957 3.8928,-5.973 a 7.61068,7.61068 0 0 0 -1.9428,-7.15966 23.55856,23.55856 0 0 0 -3.6659,-2.62 c -7.68672,-5.18454 -11.1558,-15.03411 -18.74388,-20.362 a 2.95911,2.95911 0 0 0 -1.53688,-0.66116 3.17947,3.17947 0 0 0 -1.57931,0.52962 q -5.18669,2.84309 -10.37337,5.68619 c -4.492,2.45726 -3.06811,2.74575 0.34323,5.39268 5.02508,3.89903 8.16361,9.34999 11.62901,14.54809 z"
         inkscape:connector-curvature="0"
         style="fill:#fbbebe" />
      <path
         id="path218"
         transform="translate(-134.87066,-124)"
         d="m 881.81406,503.62145 c -1.42432,-0.449 -3.02018,-0.85329 -4.36305,-0.19989 a 4.81185,4.81185 0 0 0 -2.27371,3.58541 c -0.27087,1.44365 -0.238,2.94212 -0.63884,4.3552 -0.676,2.38293 -2.49168,4.24466 -4.24173,5.99756 a 6.1849,6.1849 0 0 1 -2.66265,1.85358 c -1.40206,0.359 -2.89333,-0.29764 -4.319,-0.0482 a 4.70184,4.70184 0 0 0 -3.40744,3.4727 13.83493,13.83493 0 0 0 -0.16642,5.09517 l 1.10379,12.059 a 18.27368,18.27368 0 0 1 0.0449,4.431 c -0.40681,2.65091 -1.94754,4.97737 -2.80236,7.51944 -0.85482,2.54207 -0.80721,5.78752 1.33217,7.40489 a 5.358,5.358 0 0 0 5.11862,0.451 11.89768,11.89768 0 0 0 4.23965,-3.21926 c 6.54944,-7.14192 9.4734,-16.81531 14.56733,-25.05875 a 48.79517,48.79517 0 0 0 3.48086,-5.97438 c 0.699,-1.60154 1.14321,-3.30022 1.709,-4.95353 a 49.459,49.459 0 0 1 2.805,-6.43485 c 0.60583,-1.18755 2.92539,-4.04686 2.43818,-5.373 -0.83137,-2.26273 -9.75837,-4.26767 -11.96431,-4.96304 z"
         inkscape:connector-curvature="0"
         style="fill:#2f2e41" />
      <path
         id="path220"
         transform="translate(-134.87066,-124)"
         d="m 999.90528,536.88306 a 12.46585,12.46585 0 0 1 -6.88961,5.90484 6.219,6.219 0 0 0 -2.34176,1.21176 3.62457,3.62457 0 0 0 -0.40971,3.972 12.736,12.736 0 0 0 2.60509,3.3258 42.98877,42.98877 0 0 1 11.16641,22.50185 c 0.3481,2.13082 0.5758,4.39566 1.8509,6.138 2.4909,3.40336 7.7933,3.18074 11.5382,1.24092 a 7.45991,7.45991 0 0 0 2.886,-2.34 9.37985,9.37985 0 0 0 1.1667,-3.55906 49.06406,49.06406 0 0 0 1.1146,-9.44361 c -0.072,-5.99537 -2.3246,-11.72672 -3.4002,-17.62525 -1.5266,-8.37135 -0.7616,-17.38812 -4.6602,-24.95193 a 5.56633,5.56633 0 0 0 -1.7798,-2.23792 6.24846,6.24846 0 0 0 -3.1704,-0.71145 q -5.2831,-0.21645 -10.57285,-0.0932 c -0.98793,0.023 -2.14312,0.14736 -2.65487,0.99273 -0.52337,0.86458 -0.0659,1.968 0.39392,2.868 2.18189,4.27036 5.7188,7.68409 3.15758,12.80651 z"
         inkscape:connector-curvature="0"
         style="fill:#2f2e41" />
      <path
         id="path222"
         transform="translate(-134.87066,-124)"
         d="m 916.24215,386.83514 a 5.43983,5.43983 0 0 0 -1.27637,6.86792 c 0.78116,1.29395 2.182,2.49846 1.875,3.9784 -0.31866,1.53612 -2.20742,2.0578 -3.75677,2.30424 -13.65535,2.172 -26.94412,6.1697 -40.184,10.156 l -13.8878,4.18141 c -4.00436,1.20565 -8.07855,2.44393 -11.53859,4.79268 a 20.76846,20.76846 0 0 0 -7.25826,8.67076 c -1.58761,3.56 -2.13341,7.48112 -2.70023,11.33769 -2.0858,14.19162 -4.74883,28.52365 -11.08114,41.39434 l 33.68292,11.04458 a 49.48452,49.48452 0 0 0 10.09225,2.53987 37.61163,37.61163 0 0 0 9.8298,-0.47571 c -0.20917,-7.52125 -0.33643,-15.269 -0.5456,-22.79021 a 63.97657,63.97657 0 0 0 -0.46215,-7.10662 c -0.50507,-3.6042 -1.62347,-7.11057 -1.972,-10.73327 1.55385,-1.28167 3.8125,-0.96295 5.82589,-0.90429 4.59491,0.13387 9.08086,-1.46335 13.16723,-3.56876 4.08637,-2.10541 7.88636,-4.72939 11.95,-6.87832 6.7707,-3.58046 14.47067,-5.98877 19.639,-11.64125 -2.63256,10.03367 -8.852,18.77686 -10.05514,29.08013 -1.21555,10.4098 3.02129,20.5973 7.16865,30.22232 l 13.25116,30.75281 c 1.463,3.39533 3.41148,7.21212 7.0188,8.022 2.24755,0.50459 4.56627,-0.3388 6.65231,-1.3158 12.19618,-5.71208 21.95349,-16.45045 34.97585,-19.88452 -0.97043,-6.44861 -6.06588,-11.77962 -8.95163,-17.62759 -2.43381,-4.93209 -3.22857,-10.48612 -4.85024,-15.74151 -1.62167,-5.25539 -4.40818,-10.58105 -9.30806,-13.07906 -2.32662,-1.18613 -5.46094,-2.21828 -5.67815,-4.82076 a 5.45341,5.45341 0 0 1 0.51783,-2.42035 31.55767,31.55767 0 0 1 7.92611,-11.53817 3.50507,3.50507 0 0 0 1.042,-1.30385 3.9321,3.9321 0 0 0 0.0774,-1.55209 c -0.24577,-4.18721 1.99616,-8.1042 4.49755,-11.47114 2.50139,-3.36694 5.39133,-6.57162 6.80146,-10.5219 2.42462,-6.79217 0.0182,-14.25643 -2.37883,-21.0584 -0.9688,-2.74915 -1.988,-5.58336 -3.97827,-7.713 -3.12078,-3.33942 -7.98148,-4.30191 -12.52493,-4.8 -14.69036,-1.61047 -31.92975,-5.46136 -43.60306,3.60142 z"
         inkscape:connector-curvature="0"
         style="fill:#2f2e41" />
      <g
         id="g226"
         style="opacity:0.1">
        <path
           id="path224"
           transform="translate(-134.87066,-124)"
           d="m 914.71251,388.86624 a 2.81894,2.81894 0 0 0 2.12828,-1.921 2.05365,2.05365 0 0 0 0.0342,-0.573 c -0.21137,0.15329 -0.42495,0.30153 -0.63281,0.46292 a 5.04241,5.04241 0 0 0 -1.52968,2.03108 z"
           inkscape:connector-curvature="0" />
      </g>
      <path
         id="path228"
         transform="translate(-134.87066,-124)"
         d="m 939.45606,280.38528 c 0.17528,3.35518 -0.8378,6.946 -3.41718,9.09883 -0.82751,0.69067 -1.78791,1.214 -2.584,1.94064 a 6.983,6.983 0 0 0 1.0213,10.60751 c 2.6783,1.63421 6.08376,1.19328 9.1751,0.657 a 53.6008,53.6008 0 0 0 12.04268,-3.14239 19.98676,19.98676 0 0 0 9.49182,-7.77438 c -3.366,-1.87668 -5.199,-5.81866 -5.40339,-9.667 -0.20462,-3.85352 0.85181,-8.22637 -1.58853,-11.21572 -2.35011,-2.87881 -6.77273,-2.85778 -10.3552,-1.86958 -1.79806,0.496 -3.53906,1.182 -5.33968,1.66734 -0.91241,0.24594 -3.92633,0.25243 -4.5225,0.92432 -1.08403,1.22169 1.37817,6.83215 1.47958,8.77343 z"
         inkscape:connector-curvature="0"
         style="fill:#fbbebe" />
      <path
         id="path230"
         transform="translate(-134.87066,-124)"
         d="m 939.45606,280.38528 c 0.17528,3.35518 -0.8378,6.946 -3.41718,9.09883 -0.82751,0.69067 -1.78791,1.214 -2.584,1.94064 a 6.983,6.983 0 0 0 1.0213,10.60751 c 2.6783,1.63421 6.08376,1.19328 9.1751,0.657 a 53.6008,53.6008 0 0 0 12.04268,-3.14239 19.98676,19.98676 0 0 0 9.49182,-7.77438 c -3.366,-1.87668 -5.199,-5.81866 -5.40339,-9.667 -0.20462,-3.85352 0.85181,-8.22637 -1.58853,-11.21572 -2.35011,-2.87881 -6.77273,-2.85778 -10.3552,-1.86958 -1.79806,0.496 -3.53906,1.182 -5.33968,1.66734 -0.91241,0.24594 -3.92633,0.25243 -4.5225,0.92432 -1.08403,1.22169 1.37817,6.83215 1.47958,8.77343 z"
         inkscape:connector-curvature="0"
         style="opacity:0.1" />
      <circle
         id="circle232"
         r="19.938669"
         cy="136.23999"
         cx="814.91187"
         style="fill:#fbbebe" />
      <path
         id="path234"
         transform="translate(-134.87066,-124)"
         d="m 886.8218,413.2129 a 13.61718,13.61718 0 0 1 -1.87717,4.42689 20.743,20.743 0 0 0 -2.37994,13.60708 14.36,14.36 0 0 0 8.38119,10.59433 c 1.86648,0.7348 4.17868,0.92871 5.71776,-0.35773 -2.66376,-3.46526 -2.805,-8.196 -2.64555,-12.56387 a 4.16645,4.16645 0 0 1 0.55909,-2.33222 1.465,1.465 0 0 1 2.10554,-0.37388 18.96508,18.96508 0 0 0 1.55746,8.00637 c 0.42167,0.97095 1.14243,2.04315 2.20063,2.01555 1.51824,-0.0396 1.92833,-2.09584 1.87073,-3.6135 -0.23471,-6.18391 -0.53755,-12.62474 -3.51873,-18.04769 -1.09127,-1.98509 -2.54566,-3.84916 -2.96057,-6.0761 a 3.60673,3.60673 0 0 0 -0.76216,-2.12659 2.71886,2.71886 0 0 0 -1.12172,-0.52259 c -1.71649,-0.485 -5.77921,-1.9953 -7.19589,-0.38724 -1.51875,1.72392 0.34418,5.69006 0.0693,7.75119 z"
         inkscape:connector-curvature="0"
         style="fill:#fbbebe" />
      <path
         id="path236"
         transform="translate(-134.87066,-124)"
         d="m 916.43317,307.27486 c -2.28671,-0.25724 -4.09194,1.8356 -5.34485,3.76574 a 72.847,72.847 0 0 0 -9.92327,23.5275 c -0.966,4.26984 -1.57269,8.70471 -3.59967,12.58494 a 12.19614,12.19614 0 0 0 -1.17172,2.5607 25.27141,25.27141 0 0 0 -0.18255,4.12666 c -0.21139,2.49147 -1.683,4.70453 -2.17735,7.1556 -0.29462,1.46073 -0.23505,2.97307 -0.49708,4.44 -0.459,2.5693 -1.87083,4.85445 -2.774,7.30317 -1.59017,4.31135 -1.57608,9.04493 -2.74616,13.48872 a 4.66125,4.66125 0 0 1 -0.92395,2.00452 c -0.79335,0.87127 -2.06143,1.08417 -3.0991,1.64252 a 6.715,6.715 0 0 0 -3.11313,4.59562 19.89489,19.89489 0 0 0 -0.10611,5.70725 l 0.91669,11.79408 c 0.94457,-0.39621 1.56143,-1.46536 2.34905,-2.12021 1.44157,-1.19858 3.55868,-0.92978 5.40338,-0.59539 l 2.68729,0.48713 c 2.74871,0.49825 5.73805,1.1332 7.50137,3.29984 1.40093,-2.191 0.6,-5.42047 2.75352,-6.87832 0.70049,-0.4742 1.56781,-0.63458 2.30645,-1.04686 a 5.1463,5.1463 0 0 0 2.34664,-4.13827 15.20022,15.20022 0 0 0 -0.67507,-4.88505 c 3.452,-1.45755 5.59271,-4.95239 6.94328,-8.4476 a 69.83731,69.83731 0 0 0 3.21047,-13.0302 c 3.118,-17.52708 5.9685,-35.17969 6.25146,-52.9797 a 25.43492,25.43492 0 0 0 -0.97072,-8.8301 c -0.98283,-2.81033 -2.4063,-5.19946 -5.36487,-5.53229 z"
         inkscape:connector-curvature="0"
         style="fill:#d0cde1" />
      <path
         id="path238"
         transform="translate(-134.87066,-124)"
         d="m 966.70076,288.1867 a 25.10779,25.10779 0 0 1 -12.12691,7.04322 74.89114,74.89114 0 0 1 -14.04266,2.06867 8.737,8.737 0 0 1 -4.343,-0.37507 c -1.33885,-0.60664 -2.35634,-2.192 -1.81148,-3.55714 a 3.79384,3.79384 0 0 0 0.52409,-1.3833 c -0.0232,-1.21453 -1.8104,-1.31512 -2.97092,-0.95619 -7.67552,2.3739 -15.03643,7.075 -18.57876,14.28616 -2.001,4.07346 -2.66139,8.65412 -3.29579,13.148 -1.66857,11.81952 -3.33295,23.89629 -1.09628,35.62158 1.19267,6.25238 3.487,12.34691 3.63012,18.71042 0.0802,3.56586 -0.52135,7.11814 -0.49327,10.68479 a 5.36976,5.36976 0 0 0 0.945,3.52509 c 0.55219,0.64131 1.385,1.04588 1.77011,1.79949 0.644,1.26025 -0.21679,2.99045 0.631,4.12365 1.04413,1.3956 3.2246,0.39352 4.663,-0.59085 a 37.10749,37.10749 0 0 1 24.67231,-6.21118 c 10.45016,1.12146 20.834,6.691 30.96885,3.90753 a 14.92871,14.92871 0 0 1 -1.3451,-2.41226 c -5.0538,-16.60635 -4.71157,-35.16877 2.85171,-50.79273 2.58384,-5.3376 6.01275,-10.42456 7.00253,-16.27148 a 30.98034,30.98034 0 0 0 0.0935,-8.254 c -0.53256,-5.308 -1.79659,-10.65993 -4.68132,-15.14736 -2.88473,-4.48743 -7.65805,-8.44155 -12.96677,-8.96704 z"
         inkscape:connector-curvature="0"
         style="fill:#d0cde1" />
      <path
         id="path240"
         transform="translate(-134.87066,-124)"
         d="m 918.46266,418.34444 a 18.16093,18.16093 0 0 0 -1.14811,6.78661 39.715,39.715 0 0 0 0.33,6.62638 10.55278,10.55278 0 0 0 1.93691,5.20484 4.7637,4.7637 0 0 0 4.97786,1.76957 5.22174,5.22174 0 0 0 3.00294,-3.33908 30.51913,30.51913 0 0 0 0.94237,-4.54668 c 0.87422,-4.52578 3.25062,-8.7736 3.292,-13.38286 a 3.7638,3.7638 0 0 0 -0.2536,-1.60379 c -0.86438,-1.89464 -5.09934,-4.02066 -7.16862,-3.70171 -2.5886,0.399 -4.97241,3.9986 -5.91175,6.18672 z"
         inkscape:connector-curvature="0"
         style="fill:#fbbebe" />
      <path
         id="path242"
         transform="translate(-134.87066,-124)"
         d="m 976.00177,305.02012 c -0.39451,3.96432 3.44061,6.9523 4.95665,10.63646 a 17.90587,17.90587 0 0 1 1.04628,5.35142 c 1.06527,12.67583 0.23789,25.4258 -0.58983,38.11935 a 71.78078,71.78078 0 0 1 -1.56631,12.56373 c -2.14025,8.67422 -7.40513,16.19349 -12.56459,23.48751 a 15.117,15.117 0 0 1 -7.69321,6.34494 l -17.70353,8.57605 a 34.2699,34.2699 0 0 0 -6.2885,3.61622 17.20149,17.20149 0 0 0 -5.20552,6.77757 c -3.43459,-1.75511 -7.00092,-3.33081 -10.4355,-5.08592 -0.80388,-0.41079 -1.70281,-0.94689 -1.84156,-1.83891 -0.18618,-1.19685 1.06465,-2.04207 1.92563,-2.894 1.61072,-1.59387 2.10752,-3.95594 2.97965,-6.0474 2.84916,-6.83256 10.015,-11.20587 12.59977,-18.14276 0.99336,-2.66592 1.297,-5.67861 3.05839,-7.91277 a 19.622,19.622 0 0 1 3.37776,-2.9809 57.45985,57.45985 0 0 0 7.48821,-7.66586 12.99729,12.99729 0 0 0 2.44909,-3.58615 c 0.77373,-1.96871 0.54209,-4.16387 0.58235,-6.27879 0.1318,-6.92378 3.26229,-13.381 5.17892,-20.03552 1.805,-6.26678 2.55811,-12.84057 4.92582,-18.91712 2.36771,-6.07655 7.00643,-12.45345 13.32003,-14.08715 z"
         inkscape:connector-curvature="0"
         style="opacity:0.1" />
      <path
         id="path244"
         transform="translate(-134.87066,-124)"
         d="m 978.30238,305.02012 c -0.3945,3.96432 3.44061,6.9523 4.95666,10.63646 a 17.90586,17.90586 0 0 1 1.04627,5.35142 c 1.06528,12.67583 0.23789,25.4258 -0.58982,38.11935 a 71.78079,71.78079 0 0 1 -1.56632,12.56373 c -2.14025,8.67422 -7.40512,16.19349 -12.56459,23.48751 a 15.11706,15.11706 0 0 1 -7.6932,6.34494 l -17.70354,8.57605 a 34.27015,34.27015 0 0 0 -6.28849,3.61622 17.20161,17.20161 0 0 0 -5.20553,6.77757 c -3.43459,-1.75511 -7.00091,-3.33081 -10.4355,-5.08592 -0.80387,-0.41079 -1.7028,-0.94689 -1.84156,-1.83891 -0.18617,-1.19685 1.06466,-2.04207 1.92563,-2.894 1.61073,-1.59387 2.10752,-3.95594 2.97966,-6.0474 2.84916,-6.83256 10.015,-11.20587 12.59976,-18.14276 0.99336,-2.66592 1.297,-5.67861 3.05839,-7.91277 a 19.62274,19.62274 0 0 1 3.37776,-2.9809 57.45931,57.45931 0 0 0 7.48822,-7.66586 12.99773,12.99773 0 0 0 2.44909,-3.58615 c 0.77373,-1.96871 0.54209,-4.16387 0.58235,-6.27879 0.13179,-6.92378 3.26229,-13.381 5.17891,-20.03552 1.805,-6.26678 2.55811,-12.84057 4.92582,-18.91712 2.36771,-6.07655 7.00644,-12.45345 13.32003,-14.08715 z"
         inkscape:connector-curvature="0"
         style="fill:#d0cde1" />
      <path
         id="path246"
         transform="translate(-134.87066,-124)"
         d="m 959.67034,229.41645 a 28.24459,28.24459 0 0 0 -17.70363,3.66516 c 0.78676,0.0294 1.57736,0.0831 2.373,0.17927 a 28.37213,28.37213 0 0 1 10.89671,52.67367 28.37069,28.37069 0 0 0 4.4339,-56.5181 z"
         inkscape:connector-curvature="0"
         style="fill:#2f2e41" />
      <path
         id="path248"
         transform="translate(-134.87066,-124)"
         d="m 968.39877,245.19011 a 12.96867,12.96867 0 0 1 0.22427,9.938 12.6485,12.6485 0 0 0 -0.46523,-1.20992 c -3.50723,-7.80385 -14.3112,-11.03408 -24.13135,-7.21491 -5.7851,2.2499 -9.93565,6.44481 -11.65487,11.10735 -2.50049,-7.54389 2.57789,-16.21158 11.89584,-19.83543 9.82014,-3.8192 20.62412,-0.58894 24.13134,7.21491 z"
         inkscape:connector-curvature="0"
         style="fill:#2f2e41" />
      <g
         id="g258"
         style="opacity:0.1">
        <path
           id="path250"
           transform="translate(-134.87066,-124)"
           d="m 968.4537,254.50905 a 28.40506,28.40506 0 0 0 -18.96113,-24.4784 28.35092,28.35092 0 0 0 -7.52586,3.051 c 0.78676,0.0294 1.57736,0.0831 2.373,0.17927 a 28.37877,28.37877 0 0 1 24.11399,21.24813 z"
           inkscape:connector-curvature="0" />
        <path
           id="path252"
           transform="translate(-134.87066,-124)"
           d="m 973.05493,233.8035 a 28.40505,28.40505 0 0 0 -18.96113,-24.4784 28.35128,28.35128 0 0 0 -7.52586,3.051 c 0.78676,0.0294 1.57736,0.0831 2.373,0.17926 a 28.37877,28.37877 0 0 1 24.11399,21.24814 z"
           inkscape:connector-curvature="0" />
        <path
           id="path254"
           transform="translate(-134.87066,-124)"
           d="m 973.17213,202.87715 a 17.14276,17.14276 0 0 0 -11.44324,-14.773 17.11069,17.11069 0 0 0 -4.54195,1.84129 c 0.47482,0.0178 0.952,0.0502 1.43215,0.10819 a 17.1269,17.1269 0 0 1 14.55304,12.82352 z"
           inkscape:connector-curvature="0" />
        <path
           id="path256"
           transform="translate(-134.87066,-124)"
           d="m 983.7843,250.66462 a 28.39508,28.39508 0 0 1 -21.98035,29.977 28.54951,28.54951 0 0 1 -6.56751,5.29288 28.36866,28.36866 0 0 0 28.54786,-35.26993 z"
           inkscape:connector-curvature="0" />
      </g>
      <line
         id="line260"
         stroke-miterlimit="10"
         y2="197.54086"
         x2="756.98676"
         y1="308.46878"
         x1="760.65582"
         style="fill:none;stroke:#6c63ff;stroke-width:2;stroke-miterlimit:10" />
      <circle
         id="circle262"
         r="15.69535"
         cy="197.54086"
         cx="756.98676"
         style="fill:#6c63ff" />
      <path
         id="path264"
         transform="translate(-134.87066,-124)"
         d="m 894.11873,389.908 c 0,0 -3.83519,-48.12433 -49.58972,-41.0024"
         inkscape:connector-curvature="0"
         style="fill:#6c63ff" />
    </g>
    <g
       id="g593"
       transform="matrix(0.06811415,0,0,0.06811415,310.42139,11.999567)">
      <path
         id="path340"
         transform="translate(-15.44618,-50.56634)"
         d="m 972.83617,488.96483 c -31.82364,40.45984 -19.46023,99.567 0.76182,146.90419 6.77059,15.84908 14.42842,32.61733 11.57171,49.61361 -3.49332,20.78387 -22.04282,35.98149 -41.51838,44.036 -35.50305,14.68294 -77.98808,11.1837 -110.61027,-9.11033 C 804.84943,702.87047 784.66,674.35 755.98724,657.61034 c -47.98384,-28.01379 -109.06,-17.43486 -161.1642,1.86212 -36.86251,13.65216 -77.16372,31.40649 -113.7925,17.13912 -25.77391,-10.03925 -43.58943,-34.47414 -53.29654,-60.375 -4.68673,-12.50528 -8.0884,-26.041 -17.03815,-35.9531 -5.3207,-5.89282 -12.26446,-10.07552 -19.37758,-13.60236 -64.95318,-32.20525 -146.98893,-14.95887 -210.0777,-50.67862 -42.60792,-24.12384 -69.88539,-69.62957 -81.963,-117.07982 -12.07761,-47.45025 -10.6708,-97.20522 -7.60435,-146.0723 2.17919,-34.72773 6.089,-71.80312 28.27864,-98.60583 23.47358,-28.35355 63.75914,-38.89655 100.17187,-33.50748 36.41273,5.38907 69.41785,24.59678 98.45435,47.2201 36.28937,28.27427 69.9442,63.4825 114.49948,74.93583 30.34254,7.79981 62.26109,3.53332 93.55524,2.05584 52.31663,-2.47 104.65479,3.02285 156.68319,9.03753 49.80809,5.758 99.97593,12.09526 147.42577,28.298 33.57893,11.46626 60.49936,32.28016 92.20642,46.82105 20.6679,9.47833 43.20545,12.09553 62.77386,24.16792 24.10536,14.87137 46.20456,40.73794 40.02826,71.00585 -5.8721,28.77744 -36.02353,43.21133 -52.91413,64.68564 z"
         inkscape:connector-curvature="0"
         style="opacity:0.1;fill:#6c63ff" />
      <path
         id="path342"
         transform="translate(-15.44618,-50.56634)"
         d="m 39.17172,588.44624 c 0,0 183,-48 420,74 237,122 496,-96 491,-129 -5,-33 171.99998,0 171.99998,0 v 295 H 39.17172 Z"
         inkscape:connector-curvature="0"
         style="opacity:0.1;fill:#6c63ff" />
      <circle
         id="circle344"
         r="49.735451"
         cy="49.735451"
         cx="151.10628"
         style="fill:#ffdf9c" />
      <path
         id="path346"
         transform="translate(-15.44618,-50.56634)"
         d="m 515.4078,304.69922 -8.10071,50.38892 c 0,0 -10.1259,33.25668 -9.11331,49.38113 1.01259,16.12445 0,38.29557 0,38.29557 0,0 -24.30215,44.34225 -4.05036,62.48225 20.25179,18.14 26.32733,-57.44336 26.32733,-57.44336 0,0 -3.03777,-32.2489 4.05036,-49.38113 7.08813,-17.13223 8.10071,-54.42 8.10071,-54.42 z"
         inkscape:connector-curvature="0"
         style="fill:#ffcdd3" />
      <path
         id="path348"
         transform="translate(-15.44618,-50.56634)"
         d="m 515.4078,304.69922 -8.10071,50.38892 c 0,0 -10.1259,33.25668 -9.11331,49.38113 1.01259,16.12445 0,38.29557 0,38.29557 0,0 -24.30215,44.34225 -4.05036,62.48225 20.25179,18.14 26.32733,-57.44336 26.32733,-57.44336 0,0 -3.03777,-32.2489 4.05036,-49.38113 7.08813,-17.13223 8.10071,-54.42 8.10071,-54.42 z"
         inkscape:connector-curvature="0"
         style="opacity:0.05" />
      <path
         id="path350"
         transform="translate(-15.44618,-50.56634)"
         d="m 634.0493,477.97281 14.0077,52.46874 13.16369,61.47445 c 0,0 7.08813,13.10112 0,40.31113 l 23.28956,75.58337 c 0,0 13.16367,48.37336 21.26438,49.38114 8.10071,1.00778 -8.10071,38.29557 -8.10071,38.29557 l -22.277,-13.10112 c 0,0 -6.07554,-30.23334 -14.17626,-37.28779 -8.10072,-7.05445 -34.428,-77.59893 -34.428,-77.59893 l -8.10072,-49.38113 c 0,0 -25.31473,-67.52114 -47.5917,-83.6456 -22.27697,-16.12446 -29.3651,-42.32668 -29.3651,-42.32668 z"
         inkscape:connector-curvature="0"
         style="fill:#ffcdd3" />
      <path
         id="path352"
         transform="translate(-15.44618,-50.56634)"
         d="m 541.73513,492.146 c 0,0 7.08813,26.20223 29.3651,42.32668 22.27697,16.12445 47.5917,83.6456 47.5917,83.6456 l 8.10072,49.38113 c 0,0 26.32733,70.54448 34.428,77.59893 5.9439,5.18 10.80425,22.84631 12.9612,31.876 0.78985,3.27528 1.21506,5.41176 1.21506,5.41176 l 22.277,13.10112 c 0,0 16.20143,-37.28779 8.10071,-38.29557 -1.2556,-0.15119 -2.63271,-1.45121 -4.07063,-3.52723 -7.79689,-11.3073 -17.19375,-45.85391 -17.19375,-45.85391 l -23.28956,-75.58337 c 7.08813,-27.21 0,-40.31113 0,-40.31113 L 648.057,530.44155 634.05281,477.97662 Z"
         inkscape:connector-curvature="0"
         style="opacity:0.05" />
      <path
         id="path354"
         transform="translate(-15.44618,-50.56634)"
         d="m 412.12367,754.16832 8.10072,19.14779 36.45322,-4.03111 a 83.70567,83.70567 0 0 1 -1.86325,-15.82213 c -0.32385,-11.43826 1.438,-26.87743 10.97656,-38.5979 17.214,-21.16334 43.54135,-73.56781 43.54135,-73.56781 0,0 26.32732,-28.21779 32.40286,-39.30335 l 50.69029,-84.62317 -1.5797,-7.58854 13.67,-12.59723 h -85.05756 l -20.25179,78.6067 -16.20143,32.24891 c 0,0 -34.428,29.22557 -47.59171,90.7 0,0 -13.13326,40.95612 -21.49726,53.18042 a 14.69441,14.69441 0 0 1 -1.7923,2.24742 z"
         inkscape:connector-curvature="0"
         style="fill:#ffcdd3" />
      <path
         id="path356"
         transform="translate(-15.44618,-50.56634)"
         d="m 674.18189,776.97435 c 0.78985,3.27528 1.21506,5.41176 1.21506,5.41176 l 22.277,13.10112 c 0,0 16.20143,-37.28779 8.10071,-38.29557 -1.2556,-0.15119 -2.63271,-1.45121 -4.07063,-3.52723 a 5.67365,5.67365 0 0 0 -2.59229,6.27844 15.5728,15.5728 0 0 0 1.6,4.30324 c 3.03776,5.03889 -10.1259,13.10111 -10.1259,13.10111 -4.4352,5.67378 -11.63469,2.68067 -16.40395,-0.37287 z"
         inkscape:connector-curvature="0"
         style="opacity:0.1" />
      <path
         id="path358"
         transform="translate(-15.44618,-50.56634)"
         d="m 700.12385,761.95737 c -1.38923,-5.81288 5.91427,-9.70944 10.01629,-5.34662 a 19.491,19.491 0 0 1 2.72262,3.60424 c 4.05036,7.05445 34.428,13.10112 40.50358,11.08556 6.07558,-2.01556 27.33992,-4.03111 22.277,11.08556 -5.06292,15.11667 -96.196,37.2878 -96.196,37.2878 0,0 -10.1259,-14.1089 -9.11331,-24.18668 a 115.17769,115.17769 0 0 0 0,-20.15556 c 0,0 14.17625,13.10111 21.26438,4.03111 0,0 13.16366,-8.06223 10.12589,-13.10112 a 15.57,15.57 0 0 1 -1.60045,-4.30429 z"
         inkscape:connector-curvature="0"
         style="fill:#dce6f2" />
      <path
         id="path360"
         transform="translate(-15.44618,-50.56634)"
         d="m 412.12367,754.16832 8.10072,19.14779 36.45322,-4.03111 a 83.70567,83.70567 0 0 1 -1.86325,-15.82213 4.99593,4.99593 0 0 0 -8.131,-1.159 c -1.8834,2.01555 -3.78708,4.142 -5.19459,5.89554 -4.05036,5.03889 -17.214,2.01555 -17.214,2.01555 -3.41243,1.12871 -7.46278,-3.76908 -10.35878,-8.294 a 14.69441,14.69441 0 0 1 -1.79232,2.24736 z"
         inkscape:connector-curvature="0"
         style="opacity:0.1" />
      <path
         id="path362"
         transform="translate(-15.44618,-50.56634)"
         d="m 445.667,754.32014 a 4.98369,4.98369 0 0 1 8.47588,2.091 c 1.84223,7.166 5.88346,16.42407 14.68578,19.92827 15.18885,6.04667 36.45323,16.12446 29.3651,25.19446 -7.08813,9.07 -31.39027,17.13223 -52.65465,10.07778 C 424.27473,804.5572 393.89706,787.425 393.89706,787.425 l 15.18884,-40.31113 c 0,0 8.10072,17.13223 14.17626,15.11667 0,0 13.16366,3.02333 17.214,-2.01556 1.41025,-1.7544 3.31148,-3.87531 5.19084,-5.89484 z"
         inkscape:connector-curvature="0"
         style="fill:#dce6f2" />
      <path
         id="path364"
         transform="translate(-15.44618,-50.56634)"
         d="m 583.2513,187.797 c 0,0 -24.30215,33.25668 -18.22661,56.43558 6.07554,23.1789 -48.6043,-15.11668 -48.6043,-15.11668 0,0 28.35251,-25.1945 23.28961,-66.51341 z"
         inkscape:connector-curvature="0"
         style="fill:#ffcdd3" />
      <path
         id="path366"
         transform="translate(-15.44618,-50.56634)"
         d="m 503.25673,503.23154 c 40.50358,24.18668 89.10788,14.10889 89.10788,14.10889 L 591.352,510.286 c 0.70876,0.0706 1.41765,0.1411 2.10626,0.20156 38.71128,3.40624 47.51062,-8.26379 47.51062,-8.26379 -6.05526,-16.94075 -10.80425,-52.858 -13.76118,-80.62226 -0.42521,-3.99082 -0.81,-7.81028 -1.16438,-11.38788 -0.8,-8.09249 -1.39737,-14.90508 -1.78216,-19.51064 -0.33424,-4.05122 -0.5063,-6.38928 -0.5063,-6.38928 l -4.05036,-30.23334 c 0,0 -11.13848,-36.28 -6.07553,-60.4667 4.31212,-20.59984 -9.739,-28.041 -14.00131,-29.795 a 13.528,13.528 0 0 0 -2.059,-0.60863 c -5.55386,-1.31031 -11.73877,-6.96131 -17.00078,-13.0216 a 68.283,68.283 0 0 0 -28.40306,-19.28889 c -5.09335,-1.84419 -9.41713,-3.79928 -9.41713,-3.79928 -7.08813,-8.06223 -26.32733,-3.02334 -26.32733,-3.02334 -23.28956,15.11668 -11.13848,64.49781 -11.13848,64.49781 l 9.68041,27.53251 c 5.39706,15.32827 13.08258,29.679 21.95287,43.31429 14.885,22.8564 -5.306,54.1177 -5.306,54.1177 -31.39016,25.19449 -28.35243,89.6923 -28.35243,89.6923 z"
         inkscape:connector-curvature="0"
         style="fill:#ff8aa1" />
      <path
         id="path368"
         transform="translate(-15.44618,-50.56634)"
         d="m 589.83313,456.36985 3.62515,54.1177 c 38.71128,3.40624 47.51062,-8.26379 47.51062,-8.26379 -6.05526,-16.94075 -10.80425,-52.858 -13.76118,-80.62226 -0.42521,-3.99082 -0.81,-7.81028 -1.16438,-11.38788 z"
         inkscape:connector-curvature="0"
         style="opacity:0.05" />
      <path
         id="path370"
         transform="translate(-15.44618,-50.56634)"
         d="m 525.5337,314.777 c 0,0 18.22661,34.26446 24.30215,49.38113 6.07554,15.11667 6.07553,10.07778 9.1133,15.11667 3.03777,5.03889 35.44064,27.21 35.44064,27.21 l 32.81793,15.11667 c -1.38712,-13.02054 -2.38957,-24.25723 -2.94654,-30.89852 l -30.884,-20.49817 c 0,0 -21.26438,-13.10112 -22.277,-30.23335 -1.01262,-17.13223 -14.17618,-48.37332 -14.17618,-48.37332 0,0 -26.32732,-28.2178 -37.46581,-15.11668 -11.13849,13.10112 6.07551,38.29557 6.07551,38.29557 z"
         inkscape:connector-curvature="0"
         style="opacity:0.1" />
      <path
         id="path372"
         transform="translate(-15.44618,-50.56634)"
         d="m 556.924,286.55921 c 0,0 13.16367,31.24113 14.17626,48.37336 1.01259,17.13223 22.277,30.23335 22.277,30.23335 l 66.8309,44.34224 c 0,0 57.71761,19.14779 38.47841,41.31891 -19.2392,22.17112 -49.61689,-24.18668 -49.61689,-24.18668 l -54.67983,-25.19446 c 0,0 -32.40287,-22.17112 -35.44064,-27.21 -3.03777,-5.03888 -3.03777,0 -9.1133,-15.11667 -6.07553,-15.11667 -24.30215,-49.38114 -24.30215,-49.38114 0,0 -17.214,-25.19445 -6.07554,-38.29557 11.13846,-13.10112 37.46578,15.11666 37.46578,15.11666 z"
         inkscape:connector-curvature="0"
         style="fill:#ffcdd3" />
      <path
         id="path374"
         transform="translate(-15.44618,-50.56634)"
         d="m 565.02469,299.66033 c 0,0 -20.25179,-15.11667 -24.30215,-20.15556 -1.78806,-2.22447 -4.56283,-1.89571 -7.10464,-0.83449 a 32.04223,32.04223 0 0 1 -15.04575,2.47213 c -4.43008,-0.37792 -8.73359,-0.126 -8.22729,2.39347 1.01258,5.03889 -3.03777,-26.20224 -3.03777,-26.20224 l 17.214,-6.04666 22.277,12.09333 z"
         inkscape:connector-curvature="0"
         style="opacity:0.1" />
      <path
         id="path376"
         transform="translate(-15.44618,-50.56634)"
         d="m 565.02469,297.64477 c 0,0 -20.25179,-15.11667 -24.30215,-20.15556 -1.78806,-2.22446 -4.56283,-1.8957 -7.10464,-0.83449 a 32.04223,32.04223 0 0 1 -15.04575,2.47213 c -4.43008,-0.37792 -8.73359,-0.126 -8.22729,2.39347 1.01258,5.03889 -3.03777,-26.20223 -3.03777,-26.20223 l 17.214,-6.04667 22.277,12.09334 z"
         inkscape:connector-curvature="0"
         style="fill:#ff8aa1" />
      <path
         id="path378"
         transform="translate(-15.44618,-50.56634)"
         d="m 612.71127,299.66033 a 24.94731,24.94731 0 0 1 -22.87814,-1.51167"
         inkscape:connector-curvature="0"
         style="opacity:0.1" />
      <path
         id="path380"
         transform="translate(-15.44618,-50.56634)"
         d="m 546.29178,165.12193 c 0.75747,-6.02415 -6.73782,6.48752 -7.59442,-0.50388 l 43.54135,25.19445 c 0,0 -2.48524,3.4063 -5.66467,8.785 a 44.6673,44.6673 0 0 1 -4.96752,0.285 c -13.10013,1e-5 -17.24641,-24.7265 -25.31474,-33.76057 z"
         inkscape:connector-curvature="0"
         style="opacity:0.1" />
      <ellipse
         id="ellipse382"
         ry="43.838348"
         rx="44.047642"
         cy="102.46226"
         cx="557.17291"
         style="fill:#ffcdd3" />
      <path
         id="path384"
         transform="translate(-15.44618,-50.56634)"
         d="m 592.38123,153.7939 c -0.33111,2.752 -0.26906,5.66135 -1.58454,8.10426 -1.842,3.42065 -5.81308,4.9769 -9.13313,7.01242 -13.45552,8.24957 -17.44688,26.81015 -13.15939,41.9489 1.51716,5.357 3.90967,10.79358 2.91576,16.27066 -1.7081,9.4127 -12.48079,14.29229 -22.05467,15.12821 -9.57388,0.83592 -19.596,-0.70845 -28.54948,2.76763 -15.03751,5.83812 -21.65937,23.39105 -34.4419,33.20036 -14.86744,11.40925 -35.34621,10.70263 -54.07315,12.02291 -6.92393,0.48815 -13.95013,1.31785 -20.75181,-0.0607 -6.80168,-1.37852 -13.51315,-5.45967 -15.91572,-11.94095 -3.38992,-9.1448 2.78407,-19.06073 9.95555,-25.69905 7.17148,-6.63832 15.92463,-12.239 19.98473,-21.10928 5.45768,-11.92363 1.04582,-26.98363 7.91146,-38.16339 a 11.73388,11.73388 0 0 1 5.58455,-5.09626 c 3.024,-1.13035 6.379,-0.34937 9.60741,-0.2389 12.50522,0.42788 23.16973,-9.49989 28.97836,-20.52989 5.80863,-11.03 8.27625,-23.515 13.58777,-34.79043 6.011,-12.76034 16.02737,-24.02147 29.04845,-29.56 7.62834,-3.24471 15.95456,-4.43639 23.91944,-6.7451 9.05343,-2.62424 17.69632,-6.709 26.96975,-8.40986 9.27343,-1.70086 19.77881,-0.57821 26.55895,5.944 6.38147,6.13872 8.24215,15.771 14.34225,22.18676 2.30568,2.425 5.26624,4.476 6.37572,7.62652 2.62842,7.46372 -10.12521,8.09329 -14.3792,11.08155 a 27.834,27.834 0 0 0 -11.69716,19.0496 z"
         inkscape:connector-curvature="0"
         style="opacity:0.1" />
      <path
         id="path386"
         transform="translate(-15.44618,-50.56634)"
         d="m 590.35605,152.78613 c -0.33111,2.752 -0.26906,5.66134 -1.58454,8.10425 -1.842,3.42065 -5.81308,4.9769 -9.13312,7.01242 -13.45552,8.24957 -17.44689,26.81015 -13.1594,41.9489 1.51716,5.357 3.90967,10.79359 2.91576,16.27066 -1.7081,9.4127 -12.48079,14.2923 -22.05467,15.12821 -9.57388,0.83591 -19.59595,-0.70845 -28.54948,2.76764 -15.03751,5.83811 -21.65936,23.39105 -34.4419,33.20035 -14.86744,11.40925 -35.34621,10.70264 -54.07314,12.02291 -6.92393,0.48815 -13.95014,1.31785 -20.75182,-0.0607 -6.80168,-1.37852 -13.51315,-5.45967 -15.91572,-11.94095 -3.38992,-9.1448 2.78407,-19.06073 9.95556,-25.699 7.17149,-6.63827 15.92462,-12.239 19.98472,-21.10928 5.45768,-11.92363 1.04582,-26.98363 7.91146,-38.16338 a 11.73387,11.73387 0 0 1 5.58455,-5.09626 c 3.024,-1.13036 6.379,-0.34938 9.60741,-0.23891 12.50522,0.42789 23.16974,-9.49989 28.97836,-20.52989 5.80862,-11.03 8.27625,-23.51495 13.58778,-34.79043 6.011,-12.76034 16.02737,-24.02147 29.04844,-29.56 7.62834,-3.24471 15.95456,-4.43639 23.91944,-6.7451 9.05343,-2.62423 17.69632,-6.709 26.96975,-8.40986 9.27343,-1.70086 19.77881,-0.5782 26.55895,5.944 6.38147,6.13872 8.24216,15.771 14.34225,22.18677 2.30568,2.425 5.26624,4.476 6.37572,7.62651 2.62842,7.46372 -10.12521,8.09329 -14.3792,11.08155 a 27.834,27.834 0 0 0 -11.69716,19.04956 z"
         inkscape:connector-curvature="0"
         style="fill:#6c63ff" />
      <path
         id="path388"
         transform="translate(-15.44618,-50.56634)"
         d="m 75.67172,828.94624 c 0,0 -33,-59 8,-106 41,-47 89,-21 89,-21 0,0 60,28 46,95 0,0 -8,34 -32,32 z"
         inkscape:connector-curvature="0"
         style="fill:#6c63ff" />
      <path
         id="path390"
         transform="translate(-15.44618,-50.56634)"
         d="m 75.67172,828.94624 c 0,0 -33,-59 8,-106 41,-47 89,-21 89,-21 0,0 60,28 46,95 0,0 -8,34 -32,32 z"
         inkscape:connector-curvature="0"
         style="opacity:0.2;fill:#ffffff" />
      <line
         id="line392"
         stroke-miterlimit="10"
         y2="668.37988"
         x2="148.22554"
         y1="778.46478"
         x1="112.05888"
         style="fill:none;stroke:#535461;stroke-miterlimit:10" />
      <path
         id="path394"
         stroke-miterlimit="10"
         transform="translate(-15.44618,-50.56634)"
         d="m 196.67172,735.94624 c 0,0 -18.62042,-8.761 -37.31021,-3.88049 0,0 -9.68979,-24.11951 -31.68979,-28.11951"
         inkscape:connector-curvature="0"
         style="fill:none;stroke:#535461;stroke-miterlimit:10" />
      <path
         id="path396"
         stroke-miterlimit="10"
         transform="translate(-15.44618,-50.56634)"
         d="m 205.67172,773.94624 c 0,0 -31.66357,-22.88467 -54.83178,-15.94234 0,0 -26.16822,-31.05766 -44.16822,-29.05766"
         inkscape:connector-curvature="0"
         style="fill:none;stroke:#535461;stroke-miterlimit:10" />
      <path
         id="path398"
         stroke-miterlimit="10"
         transform="translate(-15.44618,-50.56634)"
         d="m 198.67172,814.94624 c 0,0 -27.06308,-19.57308 -60.53154,-18.28654 0,0 -25.46846,-30.71346 -49.46846,-32.71346"
         inkscape:connector-curvature="0"
         style="fill:none;stroke:#535461;stroke-miterlimit:10" />
      <path
         id="path400"
         stroke-miterlimit="10"
         transform="translate(-15.44618,-50.56634)"
         d="m 141.95278,829.03113 a 70.97617,70.97617 0 0 0 -12.92581,-4.63245 c 0,0 -20.85525,-27.11911 -62.60525,-18.28578"
         inkscape:connector-curvature="0"
         style="fill:none;stroke:#535461;stroke-miterlimit:10" />
      <path
         id="path402"
         transform="translate(-15.44618,-50.56634)"
         d="m 432.67172,828.94624 c 0,0 33,-54 -49,-134 -82,-80 -77,-95 -70,-107 0,0 -66,8 -52,107 14,99 74,134 74,134 z"
         inkscape:connector-curvature="0"
         style="fill:#6c63ff" />
      <path
         id="path404"
         stroke-miterlimit="10"
         transform="translate(-15.44618,-50.56634)"
         d="m 386.17172,828.94624 c 0,0 -24.5,-71 -61.5,-114 -37,-43 -30,-114 -11,-127"
         inkscape:connector-curvature="0"
         style="fill:none;stroke:#535461;stroke-width:2;stroke-miterlimit:10" />
      <path
         id="path406"
         transform="translate(-15.44618,-50.56634)"
         d="m 972.89321,189.33792 c -14.73639,14.95457 -15.70517,37.89491 -15.70517,37.89491 0,0 22.92362,-1.30581 37.66,-16.26037 14.73636,-14.95456 15.70516,-37.89491 15.70516,-37.89491 0,0 -22.9236,1.30581 -37.65999,16.26037 z"
         inkscape:connector-curvature="0"
         style="fill:#6c63ff" />
      <path
         id="path408"
         transform="translate(-15.44618,-50.56634)"
         d="M 95.89321,417.33792 C 81.15682,432.29249 80.188,455.23283 80.188,455.23283 c 0,0 22.92362,-1.30581 37.66,-16.26037 14.73638,-14.95456 15.70517,-37.89491 15.70517,-37.89491 0,0 -22.92357,1.30581 -37.65996,16.26037 z"
         inkscape:connector-curvature="0"
         style="fill:#fc6681" />
      <path
         id="path410"
         transform="translate(-15.44618,-50.56634)"
         d="m 916.89321,466.33792 c -14.73639,14.95457 -15.70517,37.89491 -15.70517,37.89491 0,0 22.92362,-1.30581 37.66,-16.26037 14.73638,-14.95456 15.70517,-37.89491 15.70517,-37.89491 0,0 -22.92361,1.30581 -37.66,16.26037 z"
         inkscape:connector-curvature="0"
         style="fill:#6c63ff" />
      <path
         id="path412"
         transform="translate(-15.44618,-50.56634)"
         d="m 194.73035,449.901 c -19.41845,-7.98271 -41.01995,-0.19983 -41.01995,-0.19983 0,0 9.88205,20.72542 29.30051,28.70813 19.41846,7.98271 41.01995,0.19983 41.01995,0.19983 0,0 -9.88205,-20.72537 -29.30051,-28.70813 z"
         inkscape:connector-curvature="0"
         style="fill:#6c63ff" />
      <path
         id="path414"
         transform="translate(-15.44618,-50.56634)"
         d="m 438.89492,419.916 c -11.22433,-17.743 -33.34774,-23.88733 -33.34774,-23.88733 0,0 -3.92516,22.62279 7.29917,40.36581 11.22433,17.74302 33.34773,23.88733 33.34773,23.88733 0,0 3.92517,-22.62281 -7.29916,-40.36581 z"
         inkscape:connector-curvature="0"
         style="fill:#ffd037" />
      <circle
         id="circle416"
         r="8.6690197"
         cy="442.69098"
         cx="694.35706"
         style="fill:#fc6681" />
      <circle
         id="circle418"
         r="8.6690197"
         cy="535.16052"
         cx="714.58478"
         style="fill:#fc6681" />
      <path
         id="path420"
         transform="translate(-15.44618,-50.56634)"
         d="m 547.17172,613.94624 c 0,0 -33,-37 -45,9 -12,46 -19,52 -43,40 -24,-12 -49,45 10,86 59,41 26,81.5 26,81.5 h 211 c 0,0 28,-81.5 -33,-109.5 -61,-28 -59,-49 -57,-77 2,-28 -69,-30 -69,-30 z"
         inkscape:connector-curvature="0"
         style="fill:#6c63ff" />
      <path
         id="path422"
         stroke-miterlimit="10"
         transform="translate(-15.44618,-50.56634)"
         d="m 519.17172,599.876 c 0,0 137,180.57028 90,230.57028"
         inkscape:connector-curvature="0"
         style="fill:none;stroke:#535461;stroke-width:2;stroke-miterlimit:10" />
      <path
         id="path424"
         stroke-miterlimit="10"
         transform="translate(-15.44618,-50.56634)"
         d="m 483.75026,665.855 c 0,0 32.42146,27.59127 85.42146,13.59127 53,-14 39.93178,-49.91562 39.93178,-49.91562"
         inkscape:connector-curvature="0"
         style="fill:none;stroke:#535461;stroke-width:2;stroke-miterlimit:10" />
      <path
         id="path426"
         stroke-miterlimit="10"
         transform="translate(-15.44618,-50.56634)"
         d="m 705.62082,753.1394 c 0,0 -70.53093,-34.20762 -105.99,-21.45039 -92.32238,33.21512 -160.95908,-56.24277 -160.95908,-56.24277"
         inkscape:connector-curvature="0"
         style="fill:none;stroke:#535461;stroke-width:2;stroke-miterlimit:10" />
      <path
         id="path428"
         transform="translate(-15.44618,-50.56634)"
         d="m 500.67172,828.94624 c 0,0 43,-32 -11,-144 0,0 -72,-89 0,-173 0,0 -157,4 -154,150 3,146 78.5,167 78.5,167 z"
         inkscape:connector-curvature="0"
         style="fill:#6c63ff" />
      <path
         id="path430"
         stroke-miterlimit="10"
         transform="translate(-15.44618,-50.56634)"
         d="m 460.50505,828.94624 c 0,0 -10.83333,-77 -39.83333,-124 a 100.81046,100.81046 0 0 1 -12.185,-30.70813 c -9.69437,-42.629 4.12562,-87.20841 35.43729,-117.71721 l 45.74768,-44.57466"
         inkscape:connector-curvature="0"
         style="fill:none;stroke:#535461;stroke-width:2;stroke-miterlimit:10" />
      <path
         id="path432"
         transform="translate(-15.44618,-50.56634)"
         d="m 500.67172,828.94624 c 0,0 43,-32 -11,-144 0,0 -72,-89 0,-173 0,0 -157,4 -154,150 3,146 78.5,167 78.5,167 z"
         inkscape:connector-curvature="0"
         style="opacity:0.1" />
      <path
         id="path434"
         transform="translate(-15.44618,-50.56634)"
         d="m 886.11088,828.06532 c 0,0 -147.14336,-32.89582 40.077,-225.38883 0,0 80.70472,76.48742 51.09772,171.57117 -11.90374,38.22927 -50.19728,61.83162 -88.98163,54.26911 q -1.08915,-0.21237 -2.19309,-0.45145 z"
         inkscape:connector-curvature="0"
         style="fill:#6c63ff" />
      <path
         id="path436"
         transform="translate(-15.44618,-50.56634)"
         d="m 886.11088,828.06532 c -3.231,-0.72233 -143.97448,-36.154 40.077,-225.38883 0,0 80.70472,76.48742 51.09772,171.57117 -11.90374,38.22927 -50.19728,61.83162 -88.98163,54.26911 q -1.08915,-0.21237 -2.19309,-0.45145 z"
         inkscape:connector-curvature="0"
         style="opacity:0.4;fill:#ffffff" />
      <path
         id="path438"
         stroke-miterlimit="10"
         transform="translate(-15.44618,-50.56634)"
         d="m 888.0427,829.15944 c 0,0 77.71935,-117.08468 38.14518,-226.483"
         inkscape:connector-curvature="0"
         style="fill:none;stroke:#535461;stroke-miterlimit:10" />
      <path
         id="path440"
         transform="translate(-15.44618,-50.56634)"
         d="m 277.11088,828.06532 c 0,0 -147.14336,-32.89582 40.077,-225.38883 0,0 80.70468,76.48742 51.09772,171.57117 -11.90374,38.22927 -50.19728,61.83162 -88.98163,54.26911 q -1.08915,-0.21237 -2.19309,-0.45145 z"
         inkscape:connector-curvature="0"
         style="fill:#6c63ff" />
      <path
         id="path442"
         transform="translate(-15.44618,-50.56634)"
         d="m 277.11088,828.06532 c -3.231,-0.72233 -143.97448,-36.154 40.077,-225.38883 0,0 80.70468,76.48742 51.09772,171.57117 -11.90374,38.22927 -50.19728,61.83162 -88.98163,54.26911 q -1.08915,-0.21237 -2.19309,-0.45145 z"
         inkscape:connector-curvature="0"
         style="opacity:0.4;fill:#ffffff" />
      <path
         id="path444"
         stroke-miterlimit="10"
         transform="translate(-15.44618,-50.56634)"
         d="m 279.0427,829.15944 c 0,0 77.71935,-117.08468 38.14518,-226.483"
         inkscape:connector-curvature="0"
         style="fill:none;stroke:#535461;stroke-miterlimit:10" />
      <path
         id="path446"
         transform="translate(-15.44618,-50.56634)"
         d="m 606.11088,828.06532 c 0,0 -147.14336,-32.89582 40.077,-225.38883 0,0 80.70468,76.48742 51.09772,171.57117 -11.90374,38.22927 -50.19728,61.83162 -88.98163,54.26911 q -1.08915,-0.21237 -2.19309,-0.45145 z"
         inkscape:connector-curvature="0"
         style="fill:#6c63ff" />
      <path
         id="path448"
         transform="translate(-15.44618,-50.56634)"
         d="m 606.11088,828.06532 c -3.231,-0.72233 -143.97448,-36.154 40.077,-225.38883 0,0 80.70468,76.48742 51.09772,171.57117 -11.90374,38.22927 -50.19728,61.83162 -88.98163,54.26911 q -1.08915,-0.21237 -2.19309,-0.45145 z"
         inkscape:connector-curvature="0"
         style="opacity:0.4;fill:#ffffff" />
      <path
         id="path450"
         stroke-miterlimit="10"
         transform="translate(-15.44618,-50.56634)"
         d="m 608.0427,829.15944 c 0,0 77.71935,-117.08468 38.14518,-226.483"
         inkscape:connector-curvature="0"
         style="fill:none;stroke:#535461;stroke-miterlimit:10" />
      <path
         id="path452"
         transform="translate(-15.44618,-50.56634)"
         d="m 1058.1109,828.06532 c 0,0 -147.14338,-32.89582 40.077,-225.38883 0,0 80.7047,76.48742 51.0977,171.57117 -11.9037,38.22927 -50.1973,61.83162 -88.9816,54.26911 q -1.0892,-0.21237 -2.1931,-0.45145 z"
         inkscape:connector-curvature="0"
         style="fill:#6c63ff" />
      <path
         id="path454"
         transform="translate(-15.44618,-50.56634)"
         d="m 1058.1109,828.06532 c -3.231,-0.72233 -143.9745,-36.154 40.077,-225.38883 0,0 80.7047,76.48742 51.0977,171.57117 -11.9037,38.22927 -50.1973,61.83162 -88.9816,54.26911 q -1.0892,-0.21237 -2.1931,-0.45145 z"
         inkscape:connector-curvature="0"
         style="opacity:0.4;fill:#ffffff" />
      <path
         id="path456"
         stroke-miterlimit="10"
         transform="translate(-15.44618,-50.56634)"
         d="m 1060.0427,829.15944 c 0,0 77.7194,-117.08468 38.1452,-226.483"
         inkscape:connector-curvature="0"
         style="fill:none;stroke:#535461;stroke-miterlimit:10" />
      <path
         id="path458"
         transform="translate(-15.44618,-50.56634)"
         d="m 784.11088,828.06532 c 0,0 -147.14336,-32.89582 40.077,-225.38883 0,0 80.70468,76.48742 51.09772,171.57117 -11.90374,38.22927 -50.19728,61.83162 -88.98163,54.26911 q -1.08915,-0.21237 -2.19309,-0.45145 z"
         inkscape:connector-curvature="0"
         style="fill:#6c63ff" />
      <path
         id="path460"
         transform="translate(-15.44618,-50.56634)"
         d="m 784.11088,828.06532 c -3.231,-0.72233 -143.97448,-36.154 40.077,-225.38883 0,0 80.70468,76.48742 51.09772,171.57117 -11.90374,38.22927 -50.19728,61.83162 -88.98163,54.26911 q -1.08915,-0.21237 -2.19309,-0.45145 z"
         inkscape:connector-curvature="0"
         style="opacity:0.4;fill:#ffffff" />
      <path
         id="path462"
         stroke-miterlimit="10"
         transform="translate(-15.44618,-50.56634)"
         d="m 786.0427,829.15944 c 0,0 77.71935,-117.08468 38.14518,-226.483"
         inkscape:connector-curvature="0"
         style="fill:none;stroke:#535461;stroke-miterlimit:10" />
      <path
         id="path464"
         transform="translate(-15.44618,-50.56634)"
         d="m 272.18353,816.56671 c 4.34343,-3.2928 8.41793,-7.17728 9.66941,-11.90571 a 10.06746,10.06746 0 0 0 -6.75669,-12.12626 c -6.20552,-1.9361 -12.83667,1.57342 -17.86421,5.11694 -5.02754,3.54352 -10.78951,7.58866 -17.36936,6.8382 6.81688,-4.92316 10.0573,-12.924 8.17778,-20.19162 a 7.81842,7.81842 0 0 0 -2.27432,-4.10033 c -3.44473,-3.00464 -9.68947,-1.71428 -13.814,0.65272 -13.117,7.52755 -16.77707,22.06427 -16.84844,35.14819 -1.32284,-4.71945 -0.20866,-9.63738 -0.2413,-14.47864 -0.0326,-4.84126 -1.65877,-10.20787 -6.66428,-12.808 -2.97208,-1.5439 -6.64348,-1.84353 -10.16443,-1.94918 -5.8963,-0.17695 -12.46332,0.30533 -16.49006,3.82377 -5.0032,4.37173 -3.7056,11.7067 0.647,16.51952 4.3526,4.81282 10.97343,7.82838 17.06771,11.15271 4.6445,2.53348 9.34178,5.493 12.19712,9.49155 a 8.61162,8.61162 0 0 1 0.9042,1.6957 h 36.96427 a 106.27162,106.27162 0 0 0 22.8596,-12.87956 z"
         inkscape:connector-curvature="0"
         style="fill:#6c63ff" />
      <path
         id="path466"
         transform="translate(-15.44618,-50.56634)"
         d="m 891.18353,816.56671 c 4.34343,-3.2928 8.41793,-7.17728 9.66941,-11.90571 a 10.06746,10.06746 0 0 0 -6.75669,-12.12626 c -6.20552,-1.9361 -12.83667,1.57342 -17.86421,5.11694 -5.02754,3.54352 -10.78951,7.58866 -17.36936,6.8382 6.81688,-4.92316 10.0573,-12.924 8.17778,-20.19162 a 7.81842,7.81842 0 0 0 -2.27432,-4.10033 c -3.44473,-3.00464 -9.68947,-1.71428 -13.814,0.65272 -13.117,7.52755 -16.77707,22.06427 -16.84844,35.14819 -1.32284,-4.71945 -0.20866,-9.63738 -0.2413,-14.47864 -0.0326,-4.84126 -1.65877,-10.20787 -6.66428,-12.808 -2.97208,-1.5439 -6.64348,-1.84353 -10.16443,-1.94918 -5.8963,-0.17695 -12.46332,0.30533 -16.49006,3.82377 -5.0032,4.37173 -3.7056,11.7067 0.647,16.51952 4.3526,4.81282 10.97343,7.82838 17.06771,11.15271 4.6445,2.53348 9.34178,5.493 12.19712,9.49155 a 8.61162,8.61162 0 0 1 0.9042,1.6957 h 36.96427 a 106.27162,106.27162 0 0 0 22.8596,-12.87956 z"
         inkscape:connector-curvature="0"
         style="fill:#6c63ff" />
      <path
         id="path468"
         transform="translate(-15.44618,-50.56634)"
         d="m 692.30937,744.60311 c 32.32846,59.95453 100.941,85.69172 100.941,85.69172 0,0 16.1978,-71.46832 -16.13066,-131.42285 -32.32846,-59.95453 -100.941,-85.69173 -100.941,-85.69173 0,0 -16.19779,71.46832 16.13066,131.42286 z"
         inkscape:connector-curvature="0"
         style="fill:#3f3d56" />
      <path
         id="path470"
         transform="translate(-15.44618,-50.56634)"
         d="m 714.52994,724.87849 c 58.36618,35.115 80.84484,104.86313 80.84484,104.86313 0,0 -72.15161,12.81538 -130.51778,-22.29962 -58.36617,-35.115 -80.84484,-104.86314 -80.84484,-104.86314 0,0 72.15161,-12.8154 130.51778,22.29963 z"
         inkscape:connector-curvature="0"
         style="fill:#6c63ff" />
      <path
         id="path472"
         transform="translate(-15.44618,-50.56634)"
         d="m 504.30937,744.60311 c 32.32846,59.95453 100.941,85.69172 100.941,85.69172 0,0 16.1978,-71.46832 -16.13066,-131.42285 -32.32846,-59.95453 -100.941,-85.69173 -100.941,-85.69173 0,0 -16.19779,71.46832 16.13066,131.42286 z"
         inkscape:connector-curvature="0"
         style="fill:#3f3d56" />
      <path
         id="path474"
         transform="translate(-15.44618,-50.56634)"
         d="m 526.52994,724.87849 c 58.36618,35.115 80.84484,104.86313 80.84484,104.86313 0,0 -72.15161,12.81538 -130.51778,-22.29962 -58.36617,-35.115 -80.84484,-104.86314 -80.84484,-104.86314 0,0 72.15161,-12.8154 130.51778,22.29963 z"
         inkscape:connector-curvature="0"
         style="fill:#6c63ff" />
      <path
         id="path476"
         transform="translate(-15.44618,-50.56634)"
         d="m 312.06586,541.98612 c -55.92712,83.72762 -42.04538,191.1589 -42.04538,191.1589 0,0 104.55752,-28.31802 160.48464,-112.04561 55.92712,-83.72759 42.04537,-191.1589 42.04537,-191.1589 0,0 -104.55749,28.318 -160.48463,112.04561 z"
         inkscape:connector-curvature="0"
         style="fill:#3f3d56" />
      <path
         id="path478"
         transform="translate(-15.44618,-50.56634)"
         d="m 353.21031,557.354 c -5.45969,100.54028 -80.99669,178.18269 -80.99669,178.18269 0,0 -66.68509,-85.36558 -61.22539,-185.90585 5.4597,-100.54027 80.99669,-178.18269 80.99669,-178.18269 0,0 66.68508,85.36557 61.22539,185.90585 z"
         inkscape:connector-curvature="0"
         style="fill:#fc6681" />
      <path
         id="path480"
         transform="translate(-15.44618,-50.56634)"
         d="m 1108.2436,671.43105 c 2.105,114.01688 -64.942,155.07344 -148.54766,156.617 q -2.913,0.0538 -5.79913,0.042 -5.81443,-0.0181 -11.51287,-0.31725 C 866.82846,823.82327 807.426,783.0565 805.46831,677.02106 c -2.026,-109.73354 135.6644,-250.80447 145.99337,-261.238 0.009,-1.7e-4 0.009,-1.7e-4 0.0183,-0.01 0.39238,-0.39761 0.59328,-0.59647 0.59328,-0.59647 0,0 154.06544,142.24647 156.17034,256.2541 z"
         inkscape:connector-curvature="0"
         style="fill:#6c63ff" />
      <path
         id="path482"
         transform="translate(-15.44618,-50.56634)"
         d="m 953.864,810.70949 53.9402,-78.38391 -53.92281,86.879 0.0154,8.88548 q -5.81443,-0.0181 -11.51287,-0.31725 l 3.85933,-114.17351 -0.0627,-0.8818 0.099,-0.16918 0.3679,-10.78867 -57.23629,-85.04047 57.2544,76.963 0.1816,2.28317 2.91529,-86.26255 -49.27991,-88.05946 49.58567,72.9034 1.39345,-178.76366 0.008,-0.595 0.0108,0.58532 1.82116,140.92116 46.38348,-56.73635 -46.36394,68.87492 0.17035,77.18967 42.92564,-74.87156 -42.89269,86.21989 0.0953,42.92135 62.37594,-104.26748 -62.35046,119.24083 z"
         inkscape:connector-curvature="0"
         style="fill:#3f3d56" />
      <path
         id="path484"
         transform="translate(-15.44618,-50.56634)"
         d="m 873.24355,671.43105 c 2.10505,114.01688 -64.942,155.07344 -148.54761,156.617 q -2.913,0.0538 -5.79913,0.042 -5.81443,-0.0181 -11.51287,-0.31725 C 631.82846,823.82327 572.426,783.0565 570.46831,677.02106 c -2.026,-109.73354 135.6644,-250.80447 145.99337,-261.238 0.009,-1.7e-4 0.009,-1.7e-4 0.0183,-0.01 0.39238,-0.39761 0.59328,-0.59647 0.59328,-0.59647 0,0 154.06541,142.24647 156.17028,256.2541 z"
         inkscape:connector-curvature="0"
         style="fill:#6c63ff" />
      <path
         id="path486"
         transform="translate(-15.44618,-50.56634)"
         d="m 718.864,810.70949 53.94016,-78.38391 -53.92277,86.879 0.0154,8.88548 q -5.81443,-0.0181 -11.51287,-0.31725 l 3.85933,-114.17351 -0.0627,-0.8818 0.099,-0.16918 0.3679,-10.78867 -57.23629,-85.04047 57.2544,76.963 0.1816,2.28317 2.91529,-86.26255 -49.27991,-88.05946 49.58567,72.9034 1.39345,-178.76366 0.008,-0.595 0.0108,0.58532 1.82116,140.92116 46.38348,-56.73635 -46.36394,68.87492 0.17035,77.18967 42.92564,-74.87156 -42.89269,86.21989 0.0953,42.92135 62.37592,-104.26748 -62.35044,119.24083 z"
         inkscape:connector-curvature="0"
         style="fill:#3f3d56" />
      <path
         id="path488"
         transform="translate(-15.44618,-50.56634)"
         d="m 1154.2436,673.43105 c 2.105,114.01688 -64.942,155.07344 -148.5477,156.617 q -2.913,0.0538 -5.79909,0.042 -5.81443,-0.0181 -11.51287,-0.31725 C 912.82846,825.82327 853.426,785.0565 851.46831,679.02106 c -2.026,-109.73354 135.6644,-250.80447 145.99337,-261.238 0.009,-1.7e-4 0.009,-1.7e-4 0.0183,-0.01 0.39238,-0.39761 0.59328,-0.59647 0.59328,-0.59647 0,0 154.06544,142.24647 156.17034,256.2541 z"
         inkscape:connector-curvature="0"
         style="fill:#3f3d56" />
      <path
         id="path490"
         transform="translate(-15.44618,-50.56634)"
         d="m 999.864,812.70949 53.9402,-78.38391 -53.92281,86.879 0.0154,8.88548 q -5.81443,-0.0181 -11.51287,-0.31725 l 3.85933,-114.17351 -0.0627,-0.8818 0.099,-0.16918 0.3679,-10.78867 -57.23629,-85.04047 57.2544,76.963 0.1816,2.28317 2.91529,-86.26255 -49.27991,-88.05946 49.58567,72.9034 1.39345,-178.76366 0.008,-0.595 0.0108,0.58532 1.82116,140.92116 46.38348,-56.73635 -46.36394,68.87492 0.17035,77.18967 42.92569,-74.87156 -42.89274,86.21989 0.0953,42.92135 62.37594,-104.26748 -62.35046,119.24083 z"
         inkscape:connector-curvature="0"
         style="fill:#fc6681" />
      <path
         id="path492"
         transform="translate(-15.44618,-50.56634)"
         d="m 318.24355,671.43105 c 2.105,114.01688 -64.942,155.07344 -148.54761,156.617 q -2.913,0.0538 -5.79913,0.042 -5.81443,-0.0181 -11.51287,-0.31725 C 76.82846,823.82328 17.426,783.05651 15.46831,677.02107 c -2.026,-109.73354 135.6644,-250.80447 145.99337,-261.238 0.009,-1.7e-4 0.009,-1.7e-4 0.0183,-0.01 0.39238,-0.39761 0.59328,-0.59647 0.59328,-0.59647 0,0 154.06541,142.24646 156.17028,256.25409 z"
         inkscape:connector-curvature="0"
         style="fill:#6c63ff" />
      <path
         id="path494"
         transform="translate(-15.44618,-50.56634)"
         d="m 163.864,810.70949 53.94016,-78.38391 -53.92277,86.879 0.0154,8.88548 q -5.81443,-0.0181 -11.51287,-0.31725 l 3.85933,-114.17351 -0.0627,-0.8818 0.099,-0.16918 0.3679,-10.78867 -57.2363,-85.04047 57.2544,76.963 0.1816,2.28317 2.91529,-86.26255 -49.27991,-88.05946 49.58567,72.9034 1.39345,-178.76366 0.008,-0.595 0.0108,0.58532 1.82116,140.92116 46.38348,-56.73635 -46.36394,68.87492 0.17035,77.18967 42.92564,-74.87156 -42.89268,86.21989 0.0953,42.92135 62.37592,-104.26748 -62.35044,119.24083 z"
         inkscape:connector-curvature="0"
         style="fill:#3f3d56" />
      <path
         id="path496"
         transform="translate(-15.44618,-50.56634)"
         d="m 933.55382,845.43366 q -53.9744,-9.14417 -103.81489,-15.70606 l 13.13539,-25.46773 c -4.42928,-1.53838 -23.88922,13.04624 -23.88922,13.04624 l 17.2381,-73.9267 c -22.27651,2.68647 -33.60271,78.17013 -33.60271,78.17013 L 777.73185,796.029 789.78124,824.72076 C 688.087,812.74472 600.26043,808.3042 526.388,808.14414 l 11.2426,-21.79771 c -4.42928,-1.53838 -23.88922,13.04624 -23.88922,13.04624 l 17.2381,-73.92669 c -22.27651,2.68647 -33.60271,78.17013 -33.60271,78.17013 l -24.88864,-25.52054 12.76221,30.38928 c -61.92991,1.23872 -112.43284,5.46593 -151.41368,10.28495 11.3714,-33.95689 50.00077,-66.2526 50.00077,-66.2526 -29.501,8.774 -44.97591,23.47686 -53.062,37.18414 a 595.41042,595.41042 0 0 1 34.41465,-205.722 c 0,0 -60.97752,132.69266 -53.19689,221.7615 l 0.93063,15.81606 c -51.69524,7.40207 -77.68527,15.1032 -77.68527,15.1032 z"
         inkscape:connector-curvature="0"
         style="fill:#3f3d56" />
      <path
         id="path498"
         transform="translate(-15.44618,-50.56634)"
         d="M 1050.5538,839.43366 Q 996.57942,830.28949 946.73893,823.7276 l 13.13539,-25.46773 c -4.42928,-1.53838 -23.88922,13.04624 -23.88922,13.04624 l 17.2381,-73.9267 c -22.27651,2.68647 -33.60271,78.17013 -33.60271,78.17013 L 894.73185,790.029 906.78124,818.72076 C 805.087,806.74472 717.26043,802.3042 643.388,802.14414 l 11.2426,-21.79771 c -4.42928,-1.53838 -23.88922,13.04624 -23.88922,13.04624 l 17.2381,-73.92669 c -22.27651,2.68647 -33.60271,78.17013 -33.60271,78.17013 l -24.88864,-25.52054 12.76221,30.38928 c -61.92991,1.23872 -112.43284,5.46593 -151.41368,10.28495 11.3714,-33.95689 50.00077,-66.2526 50.00077,-66.2526 -29.501,8.774 -44.97591,23.47686 -53.062,37.18414 a 595.41042,595.41042 0 0 1 34.41465,-205.722 c 0,0 -60.97752,132.69266 -53.19689,221.7615 l 0.93063,15.81606 c -51.69524,7.40207 -77.68527,15.1032 -77.68527,15.1032 z"
         inkscape:connector-curvature="0"
         style="fill:#3f3d56" />
      <path
         id="path500"
         transform="translate(-15.44618,-50.56634)"
         d="m 1184.5538,849.43366 q -53.9744,-9.14417 -103.8149,-15.70606 l 13.1354,-25.46773 c -4.4293,-1.53838 -23.8892,13.04624 -23.8892,13.04624 l 17.2381,-73.9267 c -22.2765,2.68647 -33.6027,78.17013 -33.6027,78.17013 l -24.8887,-25.52054 12.0494,28.69176 C 939.087,816.74472 851.26043,812.3042 777.388,812.14414 l 11.2426,-21.79771 c -4.42928,-1.53838 -23.88922,13.04624 -23.88922,13.04624 l 17.2381,-73.92669 c -22.27651,2.68647 -33.60271,78.17013 -33.60271,78.17013 l -24.88864,-25.52054 12.76221,30.38928 c -61.92991,1.23872 -112.43284,5.46593 -151.41368,10.28495 11.3714,-33.95689 50.00077,-66.2526 50.00077,-66.2526 -29.501,8.774 -44.97591,23.47686 -53.062,37.18414 a 595.41042,595.41042 0 0 1 34.41465,-205.722 c 0,0 -60.97752,132.69266 -53.19689,221.7615 l 0.93063,15.81606 c -51.69524,7.40207 -77.68527,15.1032 -77.68527,15.1032 z"
         inkscape:connector-curvature="0"
         style="fill:#3f3d56" />
      <path
         id="path502"
         transform="translate(-15.44618,-50.56634)"
         d="m 741.55382,839.43366 q -53.9744,-9.14417 -103.81489,-15.70606 l 13.13539,-25.46773 c -4.42928,-1.53838 -23.88922,13.04624 -23.88922,13.04624 l 17.2381,-73.9267 c -22.27651,2.68647 -33.60271,78.17013 -33.60271,78.17013 L 585.73185,790.029 597.78124,818.72076 C 496.087,806.74472 408.26043,802.3042 334.388,802.14414 l 11.2426,-21.79771 c -4.42928,-1.53838 -23.88922,13.04624 -23.88922,13.04624 l 17.2381,-73.92669 c -22.27651,2.68647 -33.60271,78.17013 -33.60271,78.17013 l -24.88864,-25.52054 12.76221,30.38928 c -61.92991,1.23872 -112.43284,5.46593 -151.41368,10.28495 11.3714,-33.95689 50.00077,-66.2526 50.00077,-66.2526 -29.501,8.774 -44.97591,23.47686 -53.062,37.18414 a 595.41042,595.41042 0 0 1 34.41465,-205.722 c 0,0 -60.97752,132.69266 -53.19689,221.7615 l 0.93063,15.81606 c -51.69524,7.40207 -77.68527,15.1032 -77.68527,15.1032 z"
         inkscape:connector-curvature="0"
         style="fill:#3f3d56" />
    </g>
  </g>
  <g
     inkscape:groupmode="layer"
     id="layer3"
     inkscape:label="Cadres"
     style="display:inline">
    <rect
       style="fill:none;stroke:#008f00;stroke-width:0;stroke-miterlimit:4;stroke-dasharray:none;stroke-opacity:1"
       id="rect4612"
       width="132.82083"
       height="213.78333"
       x="24.870832"
       y="64.695824" />
    <rect
       style="fill:none;stroke:#008f00;stroke-width:0;stroke-miterlimit:4;stroke-dasharray:none;stroke-opacity:1"
       id="rect6080"
       width="26.987499"
       height="7.9375014"
       x="24.870832"
       y="64.695824" />
    <rect
       style="fill:none;stroke:#00a651;stroke-width:1.02933609;stroke-miterlimit:4;stroke-dasharray:none;stroke-opacity:1"
       id="rect6082"
       width="112.49472"
       height="213.78334"
       x="13.733886"
       y="65.754158" />
    <path
       sodipodi:type="inkscape:offset"
       inkscape:radius="0"
       inkscape:original="M 132.92773 -278.36719 L 132.92773 -64.808594 L 294.62305 -64.808594 L 294.62305 -278.36719 L 132.92773 -278.36719 z "
       style="fill:none;stroke:#00a651;stroke-width:1.2334193;stroke-miterlimit:4;stroke-dasharray:none;stroke-opacity:1"
       id="rect6082-1"
       d="M 132.92773,-278.36719 V -64.808594 H 294.62305 V -278.36719 Z"
       transform="matrix(1.0394322,0,0,-1.0901357,-11.604645,-15.351575)" />
    <rect
       y="65.754158"
       x="294.98318"
       height="213.78334"
       width="112.49472"
       id="rect6103"
       style="fill:none;stroke:#00a651;stroke-width:1.02933609;stroke-miterlimit:4;stroke-dasharray:none;stroke-opacity:1" />
    <flowRoot
       xml:space="preserve"
       id="flowRoot6111"
       style="font-style:normal;font-variant:normal;font-weight:normal;font-stretch:normal;font-size:40px;line-height:1.25;font-family:Montserrat;-inkscape-font-specification:Montserrat;letter-spacing:0px;word-spacing:0px;fill:#1a1a1a;fill-opacity:1;stroke:none"
       transform="matrix(0.26458333,0,0,0.26458333,20.108334,-1.322949)"><flowRegion
         id="flowRegion6113"
         style="font-style:normal;font-variant:normal;font-weight:normal;font-stretch:normal;font-family:Montserrat;-inkscape-font-specification:Montserrat;fill:#1a1a1a;fill-opacity:1"><rect
           id="rect6115"
           width="347.79932"
           height="55.566326"
           x="94"
           y="274.51965"
           style="font-style:normal;font-variant:normal;font-weight:normal;font-stretch:normal;font-family:Montserrat;-inkscape-font-specification:Montserrat;fill:#1a1a1a;fill-opacity:1" /></flowRegion><flowPara
         id="flowPara6117">Objectifs</flowPara></flowRoot>    <flowRoot
       transform="matrix(0.26458333,0,0,0.26458333,138.64167,-11.377116)"
       style="font-style:normal;font-variant:normal;font-weight:normal;font-stretch:normal;font-size:40px;line-height:1.25;font-family:Montserrat;-inkscape-font-specification:Montserrat;letter-spacing:0px;word-spacing:0px;fill:#1a1a1a;fill-opacity:1;stroke:none"
       id="flowRoot6125"
       xml:space="preserve"><flowRegion
         style="font-style:normal;font-variant:normal;font-weight:normal;font-stretch:normal;font-family:Montserrat;-inkscape-font-specification:Montserrat;fill:#1a1a1a;fill-opacity:1"
         id="flowRegion6121"><rect
           style="font-style:normal;font-variant:normal;font-weight:normal;font-stretch:normal;font-family:Montserrat;-inkscape-font-specification:Montserrat;fill:#1a1a1a;fill-opacity:1"
           y="274.51965"
           x="94"
           height="55.566326"
           width="347.79932"
           id="rect6119" /></flowRegion><flowPara
         id="flowPara6123"
         style="text-align:center;text-anchor:middle">Equipements</flowPara></flowRoot>    <flowRoot
       xml:space="preserve"
       id="flowRoot6133"
       style="font-style:normal;font-variant:normal;font-weight:normal;font-stretch:normal;font-size:40px;line-height:1.25;font-family:Montserrat;-inkscape-font-specification:Montserrat;letter-spacing:0px;word-spacing:0px;fill:#1a1a1a;fill-opacity:1;stroke:none"
       transform="matrix(0.26458333,0,0,0.26458333,295.52584,-1.3229493)"><flowRegion
         id="flowRegion6129"
         style="font-style:normal;font-variant:normal;font-weight:normal;font-stretch:normal;font-family:Montserrat;-inkscape-font-specification:Montserrat;fill:#1a1a1a;fill-opacity:1"><rect
           id="rect6127"
           width="347.79932"
           height="55.566326"
           x="94"
           y="274.51965"
           style="font-style:normal;font-variant:normal;font-weight:normal;font-stretch:normal;font-family:Montserrat;-inkscape-font-specification:Montserrat;fill:#1a1a1a;fill-opacity:1" /></flowRegion><flowPara
         id="flowPara6131">Contraintes</flowPara></flowRoot>  </g>
  <g
     inkscape:groupmode="layer"
     id="layer2"
     inkscape:label="Titre"
     style="display:inline">
    <flowRoot
       xml:space="preserve"
       id="flowRoot81"
       style="font-style:normal;font-weight:normal;font-size:40px;line-height:1.25;font-family:sans-serif;letter-spacing:0px;word-spacing:0px;fill:#000000;fill-opacity:1;stroke:none"
       transform="matrix(0.26458333,0,0,0.26458333,-46.884167,4.0243189)"
       inkscape:export-xdpi="96"
       inkscape:export-ydpi="96"><flowRegion
         id="flowRegion83"><rect
           id="rect85"
           width="848.59576"
           height="168.0446"
           x="558"
           y="14.519653" /></flowRegion><flowPara
         id="flowPara87"
         style="font-style:normal;font-variant:normal;font-weight:normal;font-stretch:normal;font-size:46.66666794px;font-family:Montserrat;-inkscape-font-specification:Montserrat;text-align:center;text-anchor:middle;fill:#ffffff">Objets Connectés à l'hydroponie</flowPara><flowPara
         style="font-style:normal;font-variant:normal;font-weight:normal;font-stretch:normal;font-family:Montserrat;-inkscape-font-specification:Montserrat;text-align:center;text-anchor:middle;fill:#ffffff"
         id="flowPara89">DMEther</flowPara><flowPara
         style="font-style:normal;font-variant:normal;font-weight:normal;font-stretch:normal;font-size:26.66666794px;font-family:Montserrat;-inkscape-font-specification:Montserrat;text-align:center;text-anchor:middle;fill:#ffffff"
         id="flowPara91">Dispositif de Monitoring Ether</flowPara></flowRoot>    <g
       id="g6268"
       transform="matrix(-0.06671523,0,0,0.06671523,57.887788,8.7579404)">
      <path
         style="fill:#00a651;fill-opacity:1"
         inkscape:connector-curvature="0"
         d="m -1755.7433,289.3959 33.9638,-3.25937 a 429.46111,429.46111 0 0 0 23.0843,-42.54861 l -15.0309,-3.3834 17.3895,-1.66874 c 8.3388,-18.14481 12.712,-30.68861 12.712,-30.68861 0,0 -69.001,7.23818 -125.3289,36.01769 l -14.0434,41.47054 0.3194,-33.84639 a 173.75069,173.75069 0 0 0 -17.9748,12.39694 c -57.5773,45.61384 -89.3556,101.39577 -70.9788,124.59241 18.3769,23.19665 79.9498,5.02385 137.5272,-40.58999 17.8495,-14.14071 33.3249,-32.97317 46.1865,-52.2288 z"
         id="path6271" />
      <g
         id="g6345"
         transform="matrix(-1.125142,0,0,1.125142,-3787.6904,16.4943)" />
      <path
         id="path6347"
         d="m -2838.6066,261.68455 -8.9461,-32.92626 a 429.46111,429.46111 0 0 0 -45.8348,-15.57039 l -0.7975,15.38634 -4.5803,-16.85824 c -19.2921,-5.15611 -32.3941,-7.34903 -32.3941,-7.34903 0,0 18.7823,66.78887 56.6575,117.45023 l 43.2461,6.84123 -33.4146,5.39878 a 173.75069,173.75069 0 0 0 15.2534,15.62411 c 54.6788,49.05093 115.0247,70.95664 134.7862,48.92776 19.7616,-22.02899 -8.5445,-79.65049 -63.2234,-128.70152 -16.9509,-15.20625 -38.1255,-27.28055 -59.276,-36.70703 z"
         inkscape:connector-curvature="0"
         style="fill:#00a651;fill-opacity:1" />
    </g>
  </g>
</svg>
