<?xml version="1.0" encoding="UTF-8" standalone="no"?>
<!-- Created with Inkscape (http://www.inkscape.org/) -->

<svg
   xmlns:dc="http://purl.org/dc/elements/1.1/"
   xmlns:cc="http://creativecommons.org/ns#"
   xmlns:rdf="http://www.w3.org/1999/02/22-rdf-syntax-ns#"
   xmlns:svg="http://www.w3.org/2000/svg"
   xmlns="http://www.w3.org/2000/svg"
   xmlns:sodipodi="http://sodipodi.sourceforge.net/DTD/sodipodi-0.dtd"
   xmlns:inkscape="http://www.inkscape.org/namespaces/inkscape"
   width="420mm"
   height="297mm"
   viewBox="0 0 420 297"
   version="1.1"
   id="SVGRoot"
   inkscape:version="0.92.4 (5da689c313, 2019-01-14)"
   sodipodi:docname="Poster Objets Connectés.svg"
   inkscape:export-filename="D:\Users\Pokang\Documents\GitHub\DMEther\Elements Visuels\Poster Objets Connectés.png"
   inkscape:export-xdpi="96"
   inkscape:export-ydpi="96">
  <defs
     id="defs66" />
  <sodipodi:namedview
     id="base"
     pagecolor="#ffffff"
     bordercolor="#666666"
     borderopacity="1.0"
     inkscape:pageopacity="0.0"
     inkscape:pageshadow="2"
     inkscape:zoom="0.70710678"
     inkscape:cx="753.52713"
     inkscape:cy="634.20857"
     inkscape:document-units="mm"
     inkscape:current-layer="layer1"
     showgrid="false"
     inkscape:window-width="1920"
     inkscape:window-height="1017"
     inkscape:window-x="1796"
     inkscape:window-y="-8"
     inkscape:window-maximized="1"
     inkscape:snap-page="true"
     inkscape:snap-object-midpoints="false"
     inkscape:snap-center="false" />
  <metadata
     id="metadata69">
    <rdf:RDF>
      <cc:Work
         rdf:about="">
        <dc:format>image/svg+xml</dc:format>
        <dc:type
           rdf:resource="http://purl.org/dc/dcmitype/StillImage" />
        <dc:title></dc:title>
      </cc:Work>
    </rdf:RDF>
  </metadata>
  <g
     inkscape:label="Fond"
     inkscape:groupmode="layer"
     id="layer1"
     style="display:inline">
    <rect
       style="fill:#071214;fill-opacity:1;stroke-width:0.26435921"
       id="rect79"
       width="420"
       height="297"
       x="0.0010336339"
       y="-297.00095"
       transform="scale(1,-1)" />
    <rect
       style="fill:#00a651;fill-opacity:1;stroke:#00a651;stroke-width:1.01343489;stroke-miterlimit:4;stroke-dasharray:none;stroke-opacity:1"
       id="rect6105"
       width="111.31052"
       height="24.109318"
       x="14.156594"
       y="65.751007" />
    <rect
       y="65.752846"
       x="295.20181"
       height="24.105642"
       width="111.73147"
       id="rect6107"
       style="fill:#00a651;fill-opacity:1;stroke:#00a651;stroke-width:1.01527202;stroke-miterlimit:4;stroke-dasharray:none;stroke-opacity:1" />
    <rect
       y="-79.296402"
       x="126.6964"
       height="23.891272"
       width="166.94455"
       id="rect6109"
       style="fill:#00a651;fill-opacity:1;stroke:#00a651;stroke-width:1.23549533;stroke-miterlimit:4;stroke-dasharray:none;stroke-opacity:1"
       transform="scale(1,-1)" />
  </g>
  <g
     inkscape:groupmode="layer"
     id="layer8"
     inkscape:label="Schema">
    <rect
       style="display:inline;fill:#c2ffdb;fill-opacity:1;stroke:none;stroke-width:1;stroke-miterlimit:4;stroke-dasharray:none;stroke-opacity:1"
       id="rect6543"
       width="168.53827"
       height="101.86294"
       x="126.09776"
       y="186.24348" />
  </g>
  <g
     inkscape:groupmode="layer"
     id="layer5"
     inkscape:label="Texte1"
     style="display:inline">
    <flowRoot
       xml:space="preserve"
       id="flowRoot6135"
       style="font-style:normal;font-variant:normal;font-weight:normal;font-stretch:normal;font-size:24px;line-height:1.25;font-family:sans-serif;-inkscape-font-specification:'sans-serif, Normal';font-variant-ligatures:normal;font-variant-caps:normal;font-variant-numeric:normal;font-feature-settings:normal;text-align:start;letter-spacing:0px;word-spacing:0px;writing-mode:lr-tb;text-anchor:start;display:inline;fill:#ffffff;fill-opacity:1;stroke:none"
       transform="matrix(0.26458333,0,0,0.26458333,7.14375,5.2916667)"><flowRegion
         id="flowRegion6137"
         style="font-style:normal;font-variant:normal;font-weight:normal;font-stretch:normal;font-size:24px;font-family:sans-serif;-inkscape-font-specification:'sans-serif, Normal';font-variant-ligatures:normal;font-variant-caps:normal;font-variant-numeric:normal;font-feature-settings:normal;text-align:start;writing-mode:lr-tb;text-anchor:start;fill:#ffffff;fill-opacity:1"><rect
           id="rect6139"
           width="364.57925"
           height="680.89014"
           x="53.505238"
           y="339.62955"
           style="font-style:normal;font-variant:normal;font-weight:normal;font-stretch:normal;font-size:24px;font-family:sans-serif;-inkscape-font-specification:'sans-serif, Normal';font-variant-ligatures:normal;font-variant-caps:normal;font-variant-numeric:normal;font-feature-settings:normal;text-align:start;writing-mode:lr-tb;text-anchor:start;fill:#ffffff;fill-opacity:1" /></flowRegion><flowPara
         id="flowPara6159">1. Surveiller la bonne croissance des plantes à l'aide de 3 facteurs:</flowPara><flowPara
         id="flowPara6161">-Température</flowPara><flowPara
         id="flowPara6163">-Nutriments</flowPara><flowPara
         id="flowPara6165">-Acidité</flowPara><flowPara
         id="flowPara6167" /><flowPara
         id="flowPara6169">2. Pouvoir contrôler le dispositif à distance sur différents appareils.</flowPara><flowPara
         id="flowPara6171" /><flowPara
         id="flowPara6173">3.</flowPara></flowRoot>  </g>
  <g
     inkscape:groupmode="layer"
     id="layer3"
     inkscape:label="Cadres"
     style="display:inline">
    <rect
       style="fill:none;stroke:#008f00;stroke-width:0;stroke-miterlimit:4;stroke-dasharray:none;stroke-opacity:1"
       id="rect4612"
       width="132.82083"
       height="213.78333"
       x="24.870832"
       y="64.695824" />
    <rect
       style="fill:none;stroke:#008f00;stroke-width:0;stroke-miterlimit:4;stroke-dasharray:none;stroke-opacity:1"
       id="rect6080"
       width="26.987499"
       height="7.9375014"
       x="24.870832"
       y="64.695824" />
    <rect
       style="fill:none;stroke:#00a651;stroke-width:1.02933609;stroke-miterlimit:4;stroke-dasharray:none;stroke-opacity:1"
       id="rect6082"
       width="112.49472"
       height="213.78334"
       x="13.733886"
       y="65.754158" />
    <path
       sodipodi:type="inkscape:offset"
       inkscape:radius="0"
       inkscape:original="M 132.92773 -278.36719 L 132.92773 -64.808594 L 294.62305 -64.808594 L 294.62305 -278.36719 L 132.92773 -278.36719 z "
       style="fill:none;stroke:#00a651;stroke-width:1.2334193;stroke-miterlimit:4;stroke-dasharray:none;stroke-opacity:1"
       id="rect6082-1"
       d="M 132.92773,-278.36719 V -64.808594 H 294.62305 V -278.36719 Z"
       transform="matrix(1.0394322,0,0,-1.0901357,-11.604645,-15.351575)" />
    <rect
       y="65.754158"
       x="294.98318"
       height="213.78334"
       width="112.49472"
       id="rect6103"
       style="fill:none;stroke:#00a651;stroke-width:1.02933609;stroke-miterlimit:4;stroke-dasharray:none;stroke-opacity:1" />
    <flowRoot
       xml:space="preserve"
       id="flowRoot6111"
       style="font-style:normal;font-variant:normal;font-weight:normal;font-stretch:normal;font-size:40px;line-height:1.25;font-family:Montserrat;-inkscape-font-specification:Montserrat;letter-spacing:0px;word-spacing:0px;fill:#1a1a1a;fill-opacity:1;stroke:none"
       transform="matrix(0.26458333,0,0,0.26458333,20.108334,-1.322949)"><flowRegion
         id="flowRegion6113"
         style="font-style:normal;font-variant:normal;font-weight:normal;font-stretch:normal;font-family:Montserrat;-inkscape-font-specification:Montserrat;fill:#1a1a1a;fill-opacity:1"><rect
           id="rect6115"
           width="347.79932"
           height="55.566326"
           x="94"
           y="274.51965"
           style="font-style:normal;font-variant:normal;font-weight:normal;font-stretch:normal;font-family:Montserrat;-inkscape-font-specification:Montserrat;fill:#1a1a1a;fill-opacity:1" /></flowRegion><flowPara
         id="flowPara6117">Objectifs</flowPara></flowRoot>    <flowRoot
       transform="matrix(0.26458333,0,0,0.26458333,138.64167,-11.377116)"
       style="font-style:normal;font-variant:normal;font-weight:normal;font-stretch:normal;font-size:40px;line-height:1.25;font-family:Montserrat;-inkscape-font-specification:Montserrat;letter-spacing:0px;word-spacing:0px;fill:#1a1a1a;fill-opacity:1;stroke:none"
       id="flowRoot6125"
       xml:space="preserve"><flowRegion
         style="font-style:normal;font-variant:normal;font-weight:normal;font-stretch:normal;font-family:Montserrat;-inkscape-font-specification:Montserrat;fill:#1a1a1a;fill-opacity:1"
         id="flowRegion6121"><rect
           style="font-style:normal;font-variant:normal;font-weight:normal;font-stretch:normal;font-family:Montserrat;-inkscape-font-specification:Montserrat;fill:#1a1a1a;fill-opacity:1"
           y="274.51965"
           x="94"
           height="55.566326"
           width="347.79932"
           id="rect6119" /></flowRegion><flowPara
         id="flowPara6123"
         style="text-align:center;text-anchor:middle">Equipements</flowPara></flowRoot>    <flowRoot
       xml:space="preserve"
       id="flowRoot6133"
       style="font-style:normal;font-variant:normal;font-weight:normal;font-stretch:normal;font-size:40px;line-height:1.25;font-family:Montserrat;-inkscape-font-specification:Montserrat;letter-spacing:0px;word-spacing:0px;fill:#1a1a1a;fill-opacity:1;stroke:none"
       transform="matrix(0.26458333,0,0,0.26458333,295.52584,-1.3229493)"><flowRegion
         id="flowRegion6129"
         style="font-style:normal;font-variant:normal;font-weight:normal;font-stretch:normal;font-family:Montserrat;-inkscape-font-specification:Montserrat;fill:#1a1a1a;fill-opacity:1"><rect
           id="rect6127"
           width="347.79932"
           height="55.566326"
           x="94"
           y="274.51965"
           style="font-style:normal;font-variant:normal;font-weight:normal;font-stretch:normal;font-family:Montserrat;-inkscape-font-specification:Montserrat;fill:#1a1a1a;fill-opacity:1" /></flowRegion><flowPara
         id="flowPara6131">Contraintes</flowPara></flowRoot>  </g>
  <g
     inkscape:groupmode="layer"
     id="layer2"
     inkscape:label="Titre"
     style="display:inline">
    <flowRoot
       xml:space="preserve"
       id="flowRoot81"
       style="font-style:normal;font-weight:normal;font-size:40px;line-height:1.25;font-family:sans-serif;letter-spacing:0px;word-spacing:0px;fill:#000000;fill-opacity:1;stroke:none"
       transform="matrix(0.26458333,0,0,0.26458333,-39.6875,3.4245967)"><flowRegion
         id="flowRegion83"><rect
           id="rect85"
           width="758.84241"
           height="502.28711"
           x="558"
           y="14.519653" /></flowRegion><flowPara
         id="flowPara87"
         style="font-style:normal;font-variant:normal;font-weight:normal;font-stretch:normal;font-size:46.66666794px;font-family:Montserrat;-inkscape-font-specification:Montserrat;text-align:center;text-anchor:middle;fill:#ffffff">Objets Connectés à l'hydroponie</flowPara><flowPara
         style="font-style:normal;font-variant:normal;font-weight:normal;font-stretch:normal;font-family:Montserrat;-inkscape-font-specification:Montserrat;text-align:center;text-anchor:middle;fill:#ffffff"
         id="flowPara89">DMEther</flowPara><flowPara
         style="font-style:normal;font-variant:normal;font-weight:normal;font-stretch:normal;font-size:26.66666794px;font-family:Montserrat;-inkscape-font-specification:Montserrat;text-align:center;text-anchor:middle;fill:#ffffff"
         id="flowPara91">Dispotitif de Monitoring Ether</flowPara></flowRoot>    <g
       id="g6268"
       transform="matrix(-0.06671523,0,0,0.06671523,72.580982,7.8583571)">
      <path
         style="fill:#00a651;fill-opacity:1"
         inkscape:connector-curvature="0"
         d="m -1441.1183,289.3959 33.9638,-3.25937 a 429.46111,429.46111 0 0 0 23.0843,-42.54861 l -15.0309,-3.3834 17.3895,-1.66874 c 8.3388,-18.14481 12.712,-30.68861 12.712,-30.68861 0,0 -69.001,7.23818 -125.3289,36.01769 l -14.0434,41.47054 0.3194,-33.84639 a 173.75069,173.75069 0 0 0 -17.9748,12.39694 c -57.5773,45.61384 -89.3556,101.39577 -70.9788,124.59241 18.3769,23.19665 79.9498,5.02385 137.5272,-40.58999 17.8495,-14.14071 33.3249,-32.97317 46.1865,-52.2288 z"
         id="path6271" />
      <g
         id="g6345"
         transform="matrix(-1.125142,0,0,1.125142,-3787.6904,16.4943)" />
      <path
         id="path6347"
         d="m -2586.9066,261.68455 -8.9461,-32.92626 a 429.46111,429.46111 0 0 0 -45.8348,-15.57039 l -0.7975,15.38634 -4.5803,-16.85824 c -19.2921,-5.15611 -32.3941,-7.34903 -32.3941,-7.34903 0,0 18.7823,66.78887 56.6575,117.45023 l 43.2461,6.84123 -33.4146,5.39878 a 173.75069,173.75069 0 0 0 15.2534,15.62411 c 54.6788,49.05093 115.0247,70.95664 134.7862,48.92776 19.7616,-22.02899 -8.5445,-79.65049 -63.2234,-128.70152 -16.9509,-15.20625 -38.1255,-27.28055 -59.276,-36.70703 z"
         inkscape:connector-curvature="0"
         style="fill:#00a651;fill-opacity:1" />
    </g>
    <g
       style=""
       id="g6492">
      <path
         style="display:inline;fill:#3f3d56"
         inkscape:connector-curvature="0"
         d="m 716.90315,150.96312 v 544.618 A 42.97183,42.97183 0 0 1 673.94,738.54432 H 462.29542 a 42.97566,42.97566 0 0 1 -42.981,-42.96323 v -544.618 A 42.97564,42.97564 0 0 1 462.29542,108 h 25.6739 a 20.43229,20.43229 0 0 0 18.90173,28.12853 H 627.53691 A 20.43206,20.43206 0 0 0 646.43853,108 H 673.94 a 42.97181,42.97181 0 0 1 42.96315,42.96312 z"
         transform="matrix(0.07506411,0,0,0.07506411,310.70767,0.85185454)"
         id="path6277" />
      <path
         style="display:inline;fill:#ffffff"
         inkscape:connector-curvature="0"
         d="m 649.18119,352.01621 c 0,0 -21.60513,1.19128 -41.77884,12.88649 0.57694,-23.56592 -9.04473,-43.3394 -9.04473,-43.3394 0,0 -19.47162,13.0287 -30.73493,34.8927 -11.26316,-21.864 -30.73494,-34.89272 -30.73494,-34.89272 0,0 -9.62167,19.77348 -9.04462,43.3394 -20.17371,-11.69521 -41.77883,-12.88649 -41.77883,-12.88649 0,0 2.75086,33.70231 25.27257,55.62631 20.04533,19.51333 48.97563,23.11648 55.09989,23.67363 0.10214,0.0703 0.17333,0.11865 0.17333,0.11865 0,0 0.0172,-0.0353 0.0471,-0.0985 0.62079,0.0541 0.96547,0.0738 0.96547,0.0738 0,0 -0.0547,-0.64682 -0.20056,-1.78747 0.0646,-0.1508 0.12981,-0.304 0.20067,-0.47273 0.0709,0.16862 0.13592,0.32171 0.20055,0.47251 -0.14588,1.14076 -0.20066,1.78769 -0.20066,1.78769 0,0 0.34467,-0.0198 0.96558,-0.0739 0.03,0.0632 0.0471,0.0986 0.0471,0.0986 0,0 0.0712,-0.0483 0.17332,-0.11865 6.12459,-0.55715 35.05456,-4.16041 55.09978,-23.67363 22.52182,-21.92398 25.27269,-55.62629 25.27269,-55.62629 z"
         transform="matrix(0.07506411,0,0,0.07506411,310.70767,0.85185454)"
         id="path6279" />
      <circle
         style="display:inline;fill:#ffffff"
         cx="374.09827"
         cy="154.6351"
         r="23.291121"
         id="circle6281"
         transform="matrix(0.07506411,0,0,0.07506411,325.27761,8.9587782)" />
      <rect
         style="display:inline;fill:#00a651;fill-opacity:1"
         x="310.8222"
         y="396.7699"
         width="125.41371"
         height="125.41371"
         id="rect6283"
         transform="matrix(0.07506411,0,0,0.07506411,325.27761,8.9587782)" />
      <polyline
         style="display:inline;fill:#00a651;fill-opacity:1"
         points="326.947 558.016 326.947 547.266 420.111 547.266 420.111 558.016"
         id="polyline6285"
         transform="matrix(0.07506411,0,0,0.07506411,325.27761,8.9587782)" />
      <path
         style="display:inline;fill:#a0616a"
         inkscape:connector-curvature="0"
         d="m 890.77793,337.608 2.54414,26.71339 c 0,0 -1.27207,64.87539 -2.54414,68.69161 a 84.70344,84.70344 0 0 1 -3.8162,8.90447 l -13.99273,-38.162 v -63.60334 z"
         transform="matrix(0.07506411,0,0,0.07506411,310.70767,0.85185454)"
         id="path6287" />
      <polygon
         style="display:inline;fill:#a0616a"
         points="573.287,597.235 575.832,623.949 597.457,621.404 592.368,594.691 "
         id="polygon6289"
         transform="matrix(0.07506411,0,0,0.07506411,325.27761,8.9587782)" />
      <path
         style="display:inline;fill:#2f2e41"
         inkscape:connector-curvature="0"
         d="m 777.564,717.95587 c 0,0 -8.90447,0 -10.17654,5.08827 -1.27207,5.08827 -11.44859,33.07373 -11.44859,33.07373 0,0 -15.2648,33.07373 7.6324,35.61786 22.8972,2.54413 30.52959,-13.99273 30.52959,-19.081 0,-5.08827 1.27207,-20.35306 2.54413,-21.62513 1.27206,-1.27207 5.08827,-11.4486 2.54414,-12.72066 -2.54413,-1.27206 -7.6324,-12.68561 -7.6324,-12.68561 0,0 -5.08825,-10.21159 -13.99273,-7.66746 z"
         transform="matrix(0.07506411,0,0,0.07506411,310.70767,0.85185454)"
         id="path6291" />
      <polygon
         style="display:inline;fill:#a0616a"
         points="705.582,611.493 712.678,649.39 738.02,632.164 727.883,608.048 "
         id="polygon6293"
         transform="matrix(0.07506411,0,0,0.07506411,325.27761,8.9587782)" />
      <path
         style="display:inline;fill:#2f2e41"
         inkscape:connector-curvature="0"
         d="m 911.82087,748.673 c 0,0 -11.18126,-10.06314 -10.06313,-3.35438 1.11813,6.70876 0,42.48878 7.82688,42.48878 7.82688,0 100.63128,-13.41751 96.15878,-23.48064 -4.4725,-10.06313 -27.95311,-14.53564 -27.95311,-14.53564 0,0 -46.96128,-24.59876 -49.19753,-17.89 -2.23625,6.70876 -4.47251,8.945 -4.47251,8.945 z"
         transform="matrix(0.07506411,0,0,0.07506411,310.70767,0.85185454)"
         id="path6295" />
      <circle
         style="display:inline;fill:#a0616a"
         cx="654.69971"
         cy="69.327621"
         r="34.345791"
         id="circle6297"
         transform="matrix(0.07506411,0,0,0.07506411,325.27761,8.9587782)" />
      <path
         style="display:inline;fill:#a0616a"
         inkscape:connector-curvature="0"
         d="m 830.99081,200.22482 c 0,0 2.54413,21.62513 -24.16926,29.25753 -26.71339,7.6324 64.87539,35.61786 71.23572,21.62513 0,0 -11.4486,-13.99273 -8.90447,-27.98546 2.54413,-13.99273 0,-33.07373 0,-33.07373 z"
         transform="matrix(0.07506411,0,0,0.07506411,310.70767,0.85185454)"
         id="path6299" />
      <path
         style="display:inline;fill:#575a89"
         inkscape:connector-curvature="0"
         d="m 890.77793,262.55608 c 0,0 15.2648,1.27206 16.53687,8.90446 1.27207,7.6324 0,30.5296 0,30.5296 0,0 10.17653,30.52959 0,38.162 -10.17653,7.63241 -36.88993,8.90447 -36.88993,8.90447 z"
         transform="matrix(0.07506411,0,0,0.07506411,310.70767,0.85185454)"
         id="path6301" />
      <path
         style="display:inline;fill:#2f2e41"
         inkscape:connector-curvature="0"
         d="m 761.02715,435.55712 -13.99273,22.89719 c 0,0 3.8162,8.90447 2.54413,15.2648 -1.27207,6.36033 -1.27206,10.17653 0,12.72067 1.27206,2.54414 6.36034,57.243 5.08827,63.60332 -1.27207,6.36032 -2.54413,8.90446 -1.27207,11.4486 1.27206,2.54414 1.27207,2.54413 1.27207,5.08826 v 13.99273 l 3.8162,122.11839 c 0,0 -10.17653,5.08826 2.54413,8.90446 12.72066,3.8162 29.25753,5.08827 31.80166,-7.6324 2.54413,-12.72067 -2.54413,-104.30945 0,-106.85358 2.54413,-2.54413 5.08827,1.27207 3.8162,-5.08827 a 57.63242,57.63242 0 0 1 -1.27206,-10.17653 l 1.27206,-5.08826 20.35307,-75.05193 L 864.06454,606.014 892.05,723.04414 c 0,0 47.06646,0 39.43406,-16.53686 -7.6324,-16.53686 -30.5296,-134.83905 -30.5296,-134.83905 0,0 1.27207,-5.08827 0,-8.90447 -1.27207,-3.8162 -3.8162,-3.8162 -3.8162,-6.36033 0,-2.54413 -1.27206,-3.8162 -1.27206,-6.36033 0,-2.54413 -1.27207,-10.17653 -1.27207,-10.17653 l -8.90446,-80.14019 z"
         transform="matrix(0.07506411,0,0,0.07506411,310.70767,0.85185454)"
         id="path6303" />
      <path
         style="display:inline;fill:#2f2e41"
         inkscape:connector-curvature="0"
         d="m 824.57739,153.59436 a 12.55347,12.55347 0 0 1 -5.90816,-0.88151 c -1.79288,-0.91322 -3.13013,-3.061 -2.43577,-4.94944 l 2.32578,-0.39845 -1.34756,-4.892 2.87476,-0.34367 0.009,-5.12451 3.4876,0.26311 -1.299,-6.28052 c 12.45321,-3.51371 25.40478,-6.75495 38.20784,-4.88139 12.80306,1.87356 25.52091,10.08812 28.85678,22.59014 1.732,6.49089 0.81149,13.402 -0.82995,19.91637 -3.3011,13.10112 -6.96214,25.46213 -15.49585,35.93651 -0.29853,-5.66266 -3.1412,-11.32533 -3.43973,-16.988 a 30.44423,30.44423 0 0 0 -1.08453,-7.76089 c -1.49436,-4.64372 -5.08431,-8.25 -7.84433,-12.27247 -2.32063,-3.38216 -3.00313,-6.46778 -3.47625,-10.4145 -0.56282,-4.695 -1.47515,-3.9239 -6.48779,-3.85582 q -13.05632,0.17733 -26.11284,0.33704 z"
         transform="matrix(0.07506411,0,0,0.07506411,310.70767,0.85185454)"
         id="path6305" />
      <path
         style="display:inline;fill:#575a89"
         inkscape:connector-curvature="0"
         d="m 814.45394,223.122 c 0,0 10.2987,28.208 57.30408,17.28418 0,0 31.74058,20.87781 33.01264,25.96608 1.27206,5.08827 -24.16926,69.96365 -24.16926,69.96365 l -2.54413,49.61059 c 0,0 16.53686,36.88993 13.99273,61.05919 -2.54413,24.16926 15.2648,25.44133 -7.6324,26.7134 -19.87739,1.1043 -100.36185,-25.06371 -120.21028,-36.25389 -3.01541,-1.7 -10.0438,5.79437 -9.5405,4.45223 3.8162,-10.17653 0,-8.90447 3.8162,-11.4486 3.8162,-2.54413 10.17653,-91.58879 10.17653,-91.58879 0,0 -7.6324,-96.67705 1.27207,-99.22118 8.90447,-2.54413 44.52232,-16.53686 44.52232,-16.53686 z"
         transform="matrix(0.07506411,0,0,0.07506411,310.70767,0.85185454)"
         id="path6307" />
      <polygon
         style="display:inline;fill:#a0616a"
         points="582.192,220.704 546.574,207.983 540.214,246.145 550.39,337.734 556.751,347.91 568.835,330.737 568.199,260.138 "
         id="polygon6309"
         transform="matrix(0.07506411,0,0,0.07506411,325.27761,8.9587782)" />
      <path
         style="display:inline;fill:#575a89"
         inkscape:connector-curvature="0"
         d="m 773.74782,240.931 c 0,0 -15.2648,-1.27207 -19.081,11.44859 -3.8162,12.72066 -35.61782,61.05915 -29.25753,66.14741 6.36029,5.08826 54.69886,22.8972 55.97093,21.62513 1.27207,-1.27207 -7.6324,-99.22113 -7.6324,-99.22113 z"
         transform="matrix(0.07506411,0,0,0.07506411,310.70767,0.85185454)"
         id="path6311" />
      <path
         style="display:inline;fill:#d0cde1"
         inkscape:connector-curvature="0"
         d="m 331.33511,727.81959 c 0,0 -40.14649,-74.10248 -137.23506,-42.06014 z"
         transform="matrix(0.07506411,0,0,0.07506411,310.70767,0.85185454)"
         id="path6313" />
      <path
         style="display:inline;fill:#d0cde1"
         inkscape:connector-curvature="0"
         d="m 333.75583,726.00876 c 0,0 -49.649,-63.10881 22.0118,-141.83793 z"
         transform="matrix(0.07506411,0,0,0.07506411,310.70767,0.85185454)"
         id="path6315" />
    </g>
    <g
       id="g6470"
       transform="translate(15.715448,1.122532)">
      <path
         style="display:inline;fill:#00a651;fill-opacity:1"
         inkscape:connector-curvature="0"
         d="m 344.69391,661.25125 -8.38722,-33.073 A 429.46111,429.46111 0 0 0 290.74208,611.834 L 289.68416,627.20462 285.39,610.2712 c -19.202,-5.482 -32.265,-7.89648 -32.265,-7.89648 0,0 17.64872,67.09731 54.6606,118.39272 l 43.124,7.57249 -33.50125,4.83219 a 173.75069,173.75069 0 0 0 14.98665,15.88016 c 53.84043,49.96979 113.80669,72.89422 133.93843,51.20309 20.13174,-21.69113 -7.1946,-79.78376 -61.035,-129.75355 -16.69106,-15.49113 -37.65818,-27.92221 -58.646,-37.70546 z"
         transform="matrix(-0.06671523,0,0,0.06671523,89.126359,2.6944095)"
         id="path6177" />
      <path
         style="display:inline;fill:#00a651;fill-opacity:1"
         inkscape:connector-curvature="0"
         d="m 424.44317,625.32976 9.91563,-32.64732 a 429.46451,429.46451 0 0 0 -30.557,-37.54385 l -8.8507,12.61111 5.07688,-16.71545 C 386.4239,536.41588 376.48941,527.5967 376.48941,527.5967 c 0,0 -19.57459,66.561 -14.40543,129.60362 l 33.00186,28.77326 -31.17634,-13.18027 a 173.75138,173.75138 0 0 0 4.62073,21.34072 c 20.26038,70.60659 59.74453,121.22757 88.19038,113.06511 28.44585,-8.16246 35.08143,-72.01738 14.821,-142.624 -6.28092,-21.88874 -17.80407,-43.36822 -30.71362,-62.59176 z"
         transform="matrix(-0.06671523,0,0,0.06671523,89.126359,2.6944095)"
         id="path6179" />
      <path
         transform="matrix(-0.06671523,0,0,0.06671523,89.126359,2.6944095)"
         style="display:inline;fill:#3f3d56"
         inkscape:connector-curvature="0"
         d="m 805.65354,250.35009 h -3.99878 V 140.80476 A 63.40186,63.40186 0 0 0 738.25271,77.40283 H 506.16627 a 63.40186,63.40186 0 0 0 -63.402,63.40193 v 600.97418 a 63.40186,63.40186 0 0 0 63.402,63.40193 h 232.08644 a 63.40186,63.40186 0 0 0 63.40205,-63.40193 V 328.32631 h 3.99878 z"
         id="path6183" />
      <path
         style="display:inline;fill:#ffffff"
         inkscape:connector-curvature="0"
         d="m 788.16,141.24713 v 600.09 a 47.3508,47.3508 0 0 1 -47.35,47.35 h -233.2 a 47.35084,47.35084 0 0 1 -47.35,-47.35 v -600.09 a 47.35089,47.35089 0 0 1 47.35,-47.35 h 28.29 a 22.50661,22.50661 0 0 0 20.83,30.99 h 132.96 a 22.50673,22.50673 0 0 0 20.83,-30.99 h 30.29 a 47.35084,47.35084 0 0 1 47.35,47.35 z"
         transform="matrix(-0.06671523,0,0,0.06671523,89.126359,2.6944095)"
         id="path6185" />
      <path
         style="display:inline;fill:#e6e6e6"
         inkscape:connector-curvature="0"
         d="m 788.16,612.40716 v 128.93 a 47.3508,47.3508 0 0 1 -47.35,47.35 h -233.2 a 47.35084,47.35084 0 0 1 -47.35,-47.35 v -116.36 a 222.97136,222.97136 0 0 1 327.9,-12.57 z"
         transform="matrix(-0.06671523,0,0,0.06671523,89.126359,2.6944095)"
         id="path6187" />
      <polygon
         style="display:inline;fill:#e6e6e6"
         points="322.174,511.167 312.75,511.167 315.891,327.064 319.033,327.064 "
         id="polygon6189"
         transform="matrix(-0.06671523,0,0,0.06671523,72.580982,7.858357)" />
      <path
         transform="matrix(-0.06671523,0,0,0.06671523,89.126359,2.6944095)"
         style="display:inline;fill:#e6e6e6"
         inkscape:connector-curvature="0"
         d="m 578.02779,288.5586 15.21367,-23.512 a 352.49687,352.49687 0 0 0 -15.60827,-36.53743 l -9.83764,7.94573 7.78946,-12.03815 c -7.42343,-14.61275 -13.26462,-23.81956 -13.26462,-23.81956 0,0 -30.5115,48.08118 -40.70521,98.98824 l 19.52266,30.17145 -21.61244,-17.45628 a 142.61,142.61 0 0 0 -1.18572,17.8826 c 0,60.291 19.69081,109.16642 43.98071,109.16642 24.2899,0 43.98072,-48.87547 43.98072,-109.16642 0,-18.69079 -4.22846,-38.24546 -10.0614,-56.33418 z"
         id="path6191" />
      <polygon
         style="display:inline;fill:#e6e6e6"
         points="267.479,524.167 262.908,524.167 264.432,434.879 265.955,434.879 "
         id="polygon6193"
         transform="matrix(-0.06671523,0,0,0.06671523,72.580982,7.858357)" />
      <path
         style="display:inline;fill:#e6e6e6"
         inkscape:connector-curvature="0"
         d="m 519.28775,456.06773 7.37846,-11.40307 a 170.95723,170.95723 0 0 0 -7.56983,-17.72025 l -4.77115,3.85359 3.7778,-5.83837 c -3.60028,-7.087 -6.43319,-11.55223 -6.43319,-11.55223 0,0 -14.79775,23.31885 -19.74158,48.00821 l 9.46827,14.63282 -10.48179,-8.46609 a 69.16528,69.16528 0 0 0 -0.57506,8.67286 c 0,29.24044 9.54982,52.94451 21.33016,52.94451 11.78034,0 21.33016,-23.70407 21.33016,-52.94451 0,-9.06483 -2.05076,-18.54863 -4.87967,-27.32146 z"
         transform="matrix(-0.06671523,0,0,0.06671523,89.126359,2.6944095)"
         id="path6195" />
      <polygon
         style="display:inline;fill:#e6e6e6"
         points="386.479,524.167 381.908,524.167 383.432,434.879 384.955,434.879 "
         id="polygon6197"
         transform="matrix(-0.06671523,0,0,0.06671523,72.580982,7.858357)" />
      <path
         style="display:inline;fill:#e6e6e6"
         inkscape:connector-curvature="0"
         d="m 638.28775,456.06773 7.37846,-11.40307 a 170.95723,170.95723 0 0 0 -7.56983,-17.72025 l -4.77115,3.85359 3.7778,-5.83837 c -3.60028,-7.087 -6.43319,-11.55223 -6.43319,-11.55223 0,0 -14.79775,23.31885 -19.74158,48.00821 l 9.46827,14.63282 -10.48179,-8.46609 a 69.16528,69.16528 0 0 0 -0.57506,8.67286 c 0,29.24044 9.54982,52.94451 21.33016,52.94451 11.78034,0 21.33016,-23.70407 21.33016,-52.94451 0,-9.06483 -2.05076,-18.54863 -4.87967,-27.32146 z"
         transform="matrix(-0.06671523,0,0,0.06671523,89.126359,2.6944095)"
         id="path6199" />
      <circle
         style="display:inline;fill:#e6e6e6"
         cx="264"
         cy="186.19434"
         r="42"
         id="circle6201"
         transform="matrix(-0.06671523,0,0,0.06671523,72.580982,7.858357)" />
      <polygon
         style="display:inline;fill:#2f2e41"
         points="415.872,234.173 492.533,236.077 502.852,144.666 415.872,144.666 "
         id="polygon6203"
         transform="matrix(-0.06671523,0,0,0.06671523,72.580982,7.858357)" />
      <path
         transform="matrix(-0.06671523,0,0,0.06671523,89.126359,2.6944095)"
         style="display:inline;fill:#ffb8b8"
         inkscape:connector-curvature="0"
         d="m 644.76993,239.9612 -21.14671,-81.078 c 0,0 5.84211,-38.92023 19.97409,-38.27814 14.13198,0.64209 -3.66865,38.049 -3.66865,38.049 l 23.94311,70.03766 z"
         id="path6205" />
      <path
         style="display:inline;fill:#2f2e41"
         inkscape:connector-curvature="0"
         d="m 686.22412,443.10875 3.31146,33.11459 c 0,0 -104.311,71.19639 -104.311,100.99953 0,29.80314 -3.31146,124.17974 -3.31146,124.17974 l 38.08179,1.65573 3.31146,-44.70471 c 0,0 8.27865,-49.67189 3.31146,-67.88492 l 54.63908,-41.39325 c 0,0 -16.5573,19.86876 -13.24584,54.63909 3.31146,34.77033 -4.96717,102.65525 -4.96717,102.65525 l 39.73752,3.31146 c 0,0 4.96719,-36.42606 6.62292,-39.73752 1.65573,-3.31146 9.93438,-62.91773 1.65573,-79.475 l 67.88493,-79.475 c 0,0 23.18022,-29.80314 0,-59.60627 l -13.24584,-6.62292 z"
         transform="matrix(-0.06671523,0,0,0.06671523,89.126359,2.6944095)"
         id="path6207" />
      <path
         style="display:inline;fill:#2f2e41"
         inkscape:connector-curvature="0"
         d="m 666.35536,694.77969 -3.31146,21.52449 -21.52449,51.32763 c 0,0 -36.42605,18.213 -9.93437,21.52449 26.49168,3.31149 36.426,-3.31146 41.39324,-11.59011 4.96724,-8.27865 14.90157,-21.52449 14.90157,-21.52449 l -1.65573,34.7703 h 8.27865 l 13.56913,-47.49194 a 29.95239,29.95239 0 0 0 -5.09328,-26.76756 q -0.0979,-0.12417 -0.1972,-0.24835 c -6.62292,-8.27865 -3.31146,-19.86876 -3.31146,-19.86876 z"
         transform="matrix(-0.06671523,0,0,0.06671523,89.126359,2.6944095)"
         id="path6211" />
      <path
         style="display:inline;fill:#2f2e41"
         inkscape:connector-curvature="0"
         d="m 583.56887,694.77969 -3.31146,21.52449 -21.52449,51.32763 c 0,0 -36.42606,18.213 -9.93438,21.52449 26.49168,3.31149 36.42606,-3.31146 41.39325,-11.59011 4.96719,-8.27865 14.90157,-21.52449 14.90157,-21.52449 l -1.65573,34.7703 h 8.27865 l 13.56912,-47.49194 a 29.95239,29.95239 0 0 0 -5.09327,-26.76756 q -0.0979,-0.12417 -0.1972,-0.24835 c -6.62292,-8.27865 -3.31146,-19.86876 -3.31146,-19.86876 z"
         transform="matrix(-0.06671523,0,0,0.06671523,89.126359,2.6944095)"
         id="path6209" />
      <circle
         style="display:inline;fill:#ffb8b8"
         cx="458.09286"
         cy="162.05113"
         r="33.114601"
         id="circle6213"
         transform="matrix(-0.06671523,0,0,0.06671523,72.580982,7.858357)" />
      <path
         style="display:inline;fill:#ffb8b8"
         inkscape:connector-curvature="0"
         d="m 704.43715,267.60138 14.90157,34.77032 29.80314,-23.18022 c 0,0 -18.213,-24.83594 -18.213,-28.1474 z"
         transform="matrix(-0.06671523,0,0,0.06671523,89.126359,2.6944095)"
         id="path6215" />
      <path
         style="display:inline;fill:#00a651;fill-opacity:1"
         inkscape:connector-curvature="0"
         d="m 707.74861,287.47013 7.06394,4.34051 c 0,0 22.82273,-12.10094 28.576,-20.6387 0,0 20.65486,-6.882 28.93351,9.67527 8.27865,16.55727 -4.96719,130.80267 -4.96719,130.80267 0,0 8.27865,11.59011 6.62292,16.5573 -1.65573,4.96719 4.96721,13.24582 4.96721,13.24582 v 9.93438 c 0,0 -94.37661,1.65573 -94.37661,-6.62292 V 418.2728 l -9.93438,-3.31146 c 0,0 -9.93438,21.52449 -13.24584,19.86876 -3.31146,-1.65573 -19.86876,-14.90157 -19.86876,-14.90157 0,0 26.49168,-87.75369 41.39325,-102.65526 l 18.213,-31.45887 z"
         transform="matrix(-0.06671523,0,0,0.06671523,89.126359,2.6944095)"
         id="path6217" />
      <path
         style="display:inline;fill:#00a651;fill-opacity:1"
         inkscape:connector-curvature="0"
         d="m 704.43715,289.12586 c 0,0 -3.31146,-6.62292 -8.27865,-8.27865 -4.96719,-1.65573 -29.80314,-36.42605 -29.80314,-36.42605 l 3.31146,-18.213 -33.1146,-4.96719 c 0,0 1.65573,18.213 8.27865,29.80314 6.62292,11.59014 43.049,71.19638 43.049,71.19638 l 18.213,-33.1146 z"
         transform="matrix(-0.06671523,0,0,0.06671523,89.126359,2.6944095)"
         id="path6219" />
      <path
         style="display:inline;fill:#ffb8b8"
         inkscape:connector-curvature="0"
         d="m 730.101,420.75639 -19.86875,59.60628 c 0,0 -41.39325,46.36044 -18.213,46.36044 23.18025,0 34.77032,-41.39325 34.77032,-41.39325 l 28.14741,-59.60628 z"
         transform="matrix(-0.06671523,0,0,0.06671523,89.126359,2.6944095)"
         id="path6221" />
      <path
         style="display:inline;fill:#2f2e41"
         inkscape:connector-curvature="0"
         d="m 666.40465,239.938 c 26.52245,-10.63018 52.66949,-12.89779 78.1352,0 V 218.51138 A 13.95535,13.95535 0 0 0 730.58449,204.556 h -53.15495 a 11.02489,11.02489 0 0 0 -11.02489,11.02489 z"
         transform="matrix(-0.06671523,0,0,0.06671523,89.126359,2.6944095)"
         id="path6223" />
      <path
         style="display:inline;fill:#00a651;fill-opacity:1"
         inkscape:connector-curvature="0"
         d="m 750.79759,285.8144 c 0,0 15.10671,-12.79586 23.28279,1.88072 8.17608,14.67658 3.20889,77.59432 1.55316,85.873 -1.65573,8.27868 -13.24584,59.60628 -13.24584,59.60628 l -39.73752,-8.27865 c 0,0 -3.31146,-23.18022 6.62292,-21.52449 z"
         transform="matrix(-0.06671523,0,0,0.06671523,89.126359,2.6944095)"
         id="path6225" />
      <path
         style="display:inline;fill:#2f2e41"
         inkscape:connector-curvature="0"
         d="m 767.27813,271.58657 c -7.47508,-4.10485 -10.95384,-13.3183 -11.20173,-21.8427 -0.24822,-8.5244 1.81928,-16.96078 1.98174,-25.48727 a 19.70066,19.70066 0 0 0 -0.44217,-5.19738 19.99152,19.99152 0 0 0 -2.85872,-5.91734 c -9.72073,-14.89484 -26.61815,-25.37235 -44.41647,-25.53721 a 19.72685,19.72685 0 0 0 -7.51573,1.38171 c -1.84014,0.737 -2.44183,0.64676 -2.79446,2.90614 a 18.80778,18.80778 0 0 0 -12.90778,0.41044 43.67006,43.67006 0 0 0 -11.28781,6.72245 50.91134,50.91134 0 0 0 -5.707,4.94121 c -9.4059,9.74414 -11.57188,24.76187 -8.847,38.02816 0.88586,4.313 -3.3647,8.47684 -6.88166,11.12594 -3.51696,2.6491 -7.57824,5.08173 -9.3054,9.132 -1.66117,3.89607 -0.74885,8.35188 -1.08333,12.57414 a 21.50585,21.50585 0 0 1 -13.71993,18.06931 6.619,6.619 0 0 0 6.38589,2.24579 15.71689,15.71689 0 0 0 6.65437,-3.168 39.58173,39.58173 0 0 0 14.7562,-21.89461 c 1.03307,4.69842 0.63244,9.54449 0.59442,14.355 a 40.097,40.097 0 0 1 -2.90746,15.67932 22.95849,22.95849 0 0 1 -10.57045,11.63912 c 4.6135,2.25911 9.69783,0.62172 13.60738,-2.71074 3.90938,-3.33246 6.21789,-8.16974 7.83049,-13.047 a 65.02715,65.02715 0 0 0 3.1334,-24.67964 35.23865,35.23865 0 0 1 4.42208,24.02449 36.73,36.73 0 0 1 -12.45807,21.62429 71.55883,71.55883 0 0 0 32.75215,-8.24838 18.53725,18.53725 0 0 0 6.71768,-5.17351 c 3.251,-4.50991 2.48187,-10.6609 1.57006,-16.14519 -0.72122,-4.3364 4.69775,-10.60546 1.5945,-13.71918 a 5.14429,5.14429 0 0 0 -3.44914,-1.48246 c -9.45259,-0.91006 -18.20527,-5.65746 -23.25035,-13.70275 -3.53538,-5.63781 -5.87629,-12.07592 -5.87629,-18.09738 a 32.93149,32.93149 0 1 1 64.38483,9.77247 66.08219,66.08219 0 0 0 -2.39716,11.16014 87.6848,87.6848 0 0 1 -2.6728,12.98267 c -2.34787,8.17535 -6.32542,16.51719 -13.68526,20.7814 2.47315,1.35348 5.33556,1.41445 8.13766,1.72322 9.23506,1.01758 18.9478,0.79289 27.30655,-3.26312 8.35904,-4.05612 15.00236,-12.69373 14.40677,-21.96555 z"
         transform="matrix(-0.06671523,0,0,0.06671523,89.126359,2.6944095)"
         id="path6227" />
      <polygon
         style="display:inline;opacity:0.2"
         points="482.101,255.6 490.38,252.288 481.739,323.422 "
         id="polygon6229"
         transform="matrix(-0.06671523,0,0,0.06671523,72.580982,7.858357)" />
      <polygon
         style="display:inline;opacity:0.2"
         points="523.494,361.567 518.772,336.291 515.216,358.255 "
         id="polygon6231"
         transform="matrix(-0.06671523,0,0,0.06671523,72.580982,7.858357)" />
    </g>
  </g>
</svg>
