<?xml version="1.0" encoding="UTF-8" standalone="no"?>
<!-- Created with Inkscape (http://www.inkscape.org/) -->

<svg
   xmlns:dc="http://purl.org/dc/elements/1.1/"
   xmlns:cc="http://creativecommons.org/ns#"
   xmlns:rdf="http://www.w3.org/1999/02/22-rdf-syntax-ns#"
   xmlns:svg="http://www.w3.org/2000/svg"
   xmlns="http://www.w3.org/2000/svg"
   xmlns:sodipodi="http://sodipodi.sourceforge.net/DTD/sodipodi-0.dtd"
   xmlns:inkscape="http://www.inkscape.org/namespaces/inkscape"
   width="420mm"
   height="297mm"
   viewBox="0 0 420 297"
   version="1.1"
   id="SVGRoot"
   inkscape:version="0.92.4 (5da689c313, 2019-01-14)"
   sodipodi:docname="Poster Objets Connectés.svg"
   inkscape:export-filename="D:\Users\Pokang\Documents\GitHub\DMEther\Elements Visuels\Poster Objets Connectés.png"
   inkscape:export-xdpi="96"
   inkscape:export-ydpi="96">
  <defs
     id="defs66">
    <inkscape:perspective
       sodipodi:type="inkscape:persp3d"
       inkscape:vp_x="131.01276 : 115.78817 : 1"
       inkscape:vp_y="0 : 320.73214 : 0"
       inkscape:vp_z="265.72026 : 115.78817 : 1"
       inkscape:persp3d-origin="198.36651 : 99.911927 : 1"
       id="perspective6547" />
  </defs>
  <sodipodi:namedview
     id="base"
     pagecolor="#ffffff"
     bordercolor="#666666"
     borderopacity="1.0"
     inkscape:pageopacity="0.0"
     inkscape:pageshadow="2"
     inkscape:zoom="0.5"
     inkscape:cx="630.46089"
     inkscape:cy="700.60894"
     inkscape:document-units="mm"
     inkscape:current-layer="layer2"
     showgrid="false"
     inkscape:window-width="1920"
     inkscape:window-height="1017"
     inkscape:window-x="1796"
     inkscape:window-y="-8"
     inkscape:window-maximized="1"
     inkscape:snap-page="true"
     inkscape:snap-object-midpoints="false"
     inkscape:snap-center="false" />
  <metadata
     id="metadata69">
    <rdf:RDF>
      <cc:Work
         rdf:about="">
        <dc:format>image/svg+xml</dc:format>
        <dc:type
           rdf:resource="http://purl.org/dc/dcmitype/StillImage" />
        <dc:title></dc:title>
      </cc:Work>
    </rdf:RDF>
  </metadata>
  <g
     inkscape:label="Fond"
     inkscape:groupmode="layer"
     id="layer1"
     style="display:inline">
    <rect
       style="fill:#071214;fill-opacity:1;stroke-width:0.26435921"
       id="rect79"
       width="420"
       height="297"
       x="0.0010336339"
       y="-297.00095"
       transform="scale(1,-1)" />
    <rect
       style="fill:#00a651;fill-opacity:1;stroke:#00a651;stroke-width:1.01343489;stroke-miterlimit:4;stroke-dasharray:none;stroke-opacity:1"
       id="rect6105"
       width="111.31052"
       height="24.109318"
       x="14.156594"
       y="65.751007" />
    <rect
       y="65.752846"
       x="295.20181"
       height="24.105642"
       width="111.73147"
       id="rect6107"
       style="fill:#00a651;fill-opacity:1;stroke:#00a651;stroke-width:1.01527202;stroke-miterlimit:4;stroke-dasharray:none;stroke-opacity:1" />
    <rect
       y="-79.296402"
       x="126.6964"
       height="23.891272"
       width="166.94455"
       id="rect6109"
       style="fill:#00a651;fill-opacity:1;stroke:#00a651;stroke-width:1.23549533;stroke-miterlimit:4;stroke-dasharray:none;stroke-opacity:1"
       transform="scale(1,-1)" />
  </g>
  <g
     inkscape:groupmode="layer"
     id="layer5"
     inkscape:label="Texte1"
     style="display:inline">
    <flowRoot
       xml:space="preserve"
       id="flowRoot6135"
       style="font-style:normal;font-variant:normal;font-weight:normal;font-stretch:normal;font-size:24px;line-height:1.25;font-family:sans-serif;-inkscape-font-specification:'sans-serif, Normal';font-variant-ligatures:normal;font-variant-caps:normal;font-variant-numeric:normal;font-feature-settings:normal;text-align:start;letter-spacing:0px;word-spacing:0px;writing-mode:lr-tb;text-anchor:start;display:inline;fill:#ffffff;fill-opacity:1;stroke:none"
       transform="matrix(0.26458333,0,0,0.26458333,7.14375,5.2916667)"><flowRegion
         id="flowRegion6137"
         style="font-style:normal;font-variant:normal;font-weight:normal;font-stretch:normal;font-size:24px;font-family:sans-serif;-inkscape-font-specification:'sans-serif, Normal';font-variant-ligatures:normal;font-variant-caps:normal;font-variant-numeric:normal;font-feature-settings:normal;text-align:start;writing-mode:lr-tb;text-anchor:start;fill:#ffffff;fill-opacity:1"><rect
           id="rect6139"
           width="364.57925"
           height="680.89014"
           x="53.505238"
           y="339.62955"
           style="font-style:normal;font-variant:normal;font-weight:normal;font-stretch:normal;font-size:24px;font-family:sans-serif;-inkscape-font-specification:'sans-serif, Normal';font-variant-ligatures:normal;font-variant-caps:normal;font-variant-numeric:normal;font-feature-settings:normal;text-align:start;writing-mode:lr-tb;text-anchor:start;fill:#ffffff;fill-opacity:1" /></flowRegion><flowPara
         id="flowPara6159">1. Surveiller la bonne croissance des plantes à l'aide de 3 facteurs:</flowPara><flowPara
         id="flowPara6161">-Température</flowPara><flowPara
         id="flowPara6163">-Nutriments</flowPara><flowPara
         id="flowPara6165">-Acidité</flowPara><flowPara
         id="flowPara6167" /><flowPara
         id="flowPara6169">2. Pouvoir contrôler le dispositif à distance sur différents appareils.</flowPara><flowPara
         id="flowPara6171" /><flowPara
         id="flowPara6173">3.</flowPara></flowRoot>  </g>
  <g
     inkscape:groupmode="layer"
     id="layer9"
     inkscape:label="SchemaFond"
     style="display:inline">
    <rect
       style="display:inline;fill:#c2ffdb;fill-opacity:1;stroke:none;stroke-width:1.05540216;stroke-miterlimit:4;stroke-dasharray:none;stroke-opacity:1"
       id="rect6543"
       width="168.53827"
       height="113.46243"
       x="126.09776"
       y="174.64398" />
  </g>
  <g
     inkscape:groupmode="layer"
     id="layer3"
     inkscape:label="Cadres"
     style="display:inline">
    <rect
       style="fill:none;stroke:#008f00;stroke-width:0;stroke-miterlimit:4;stroke-dasharray:none;stroke-opacity:1"
       id="rect4612"
       width="132.82083"
       height="213.78333"
       x="24.870832"
       y="64.695824" />
    <rect
       style="fill:none;stroke:#008f00;stroke-width:0;stroke-miterlimit:4;stroke-dasharray:none;stroke-opacity:1"
       id="rect6080"
       width="26.987499"
       height="7.9375014"
       x="24.870832"
       y="64.695824" />
    <rect
       style="fill:none;stroke:#00a651;stroke-width:1.02933609;stroke-miterlimit:4;stroke-dasharray:none;stroke-opacity:1"
       id="rect6082"
       width="112.49472"
       height="213.78334"
       x="13.733886"
       y="65.754158" />
    <path
       sodipodi:type="inkscape:offset"
       inkscape:radius="0"
       inkscape:original="M 132.92773 -278.36719 L 132.92773 -64.808594 L 294.62305 -64.808594 L 294.62305 -278.36719 L 132.92773 -278.36719 z "
       style="fill:none;stroke:#00a651;stroke-width:1.2334193;stroke-miterlimit:4;stroke-dasharray:none;stroke-opacity:1"
       id="rect6082-1"
       d="M 132.92773,-278.36719 V -64.808594 H 294.62305 V -278.36719 Z"
       transform="matrix(1.0394322,0,0,-1.0901357,-11.604645,-15.351575)" />
    <rect
       y="65.754158"
       x="294.98318"
       height="213.78334"
       width="112.49472"
       id="rect6103"
       style="fill:none;stroke:#00a651;stroke-width:1.02933609;stroke-miterlimit:4;stroke-dasharray:none;stroke-opacity:1" />
    <flowRoot
       xml:space="preserve"
       id="flowRoot6111"
       style="font-style:normal;font-variant:normal;font-weight:normal;font-stretch:normal;font-size:40px;line-height:1.25;font-family:Montserrat;-inkscape-font-specification:Montserrat;letter-spacing:0px;word-spacing:0px;fill:#1a1a1a;fill-opacity:1;stroke:none"
       transform="matrix(0.26458333,0,0,0.26458333,20.108334,-1.322949)"><flowRegion
         id="flowRegion6113"
         style="font-style:normal;font-variant:normal;font-weight:normal;font-stretch:normal;font-family:Montserrat;-inkscape-font-specification:Montserrat;fill:#1a1a1a;fill-opacity:1"><rect
           id="rect6115"
           width="347.79932"
           height="55.566326"
           x="94"
           y="274.51965"
           style="font-style:normal;font-variant:normal;font-weight:normal;font-stretch:normal;font-family:Montserrat;-inkscape-font-specification:Montserrat;fill:#1a1a1a;fill-opacity:1" /></flowRegion><flowPara
         id="flowPara6117">Objectifs</flowPara></flowRoot>    <flowRoot
       transform="matrix(0.26458333,0,0,0.26458333,138.64167,-11.377116)"
       style="font-style:normal;font-variant:normal;font-weight:normal;font-stretch:normal;font-size:40px;line-height:1.25;font-family:Montserrat;-inkscape-font-specification:Montserrat;letter-spacing:0px;word-spacing:0px;fill:#1a1a1a;fill-opacity:1;stroke:none"
       id="flowRoot6125"
       xml:space="preserve"><flowRegion
         style="font-style:normal;font-variant:normal;font-weight:normal;font-stretch:normal;font-family:Montserrat;-inkscape-font-specification:Montserrat;fill:#1a1a1a;fill-opacity:1"
         id="flowRegion6121"><rect
           style="font-style:normal;font-variant:normal;font-weight:normal;font-stretch:normal;font-family:Montserrat;-inkscape-font-specification:Montserrat;fill:#1a1a1a;fill-opacity:1"
           y="274.51965"
           x="94"
           height="55.566326"
           width="347.79932"
           id="rect6119" /></flowRegion><flowPara
         id="flowPara6123"
         style="text-align:center;text-anchor:middle">Equipements</flowPara></flowRoot>    <flowRoot
       xml:space="preserve"
       id="flowRoot6133"
       style="font-style:normal;font-variant:normal;font-weight:normal;font-stretch:normal;font-size:40px;line-height:1.25;font-family:Montserrat;-inkscape-font-specification:Montserrat;letter-spacing:0px;word-spacing:0px;fill:#1a1a1a;fill-opacity:1;stroke:none"
       transform="matrix(0.26458333,0,0,0.26458333,295.52584,-1.3229493)"><flowRegion
         id="flowRegion6129"
         style="font-style:normal;font-variant:normal;font-weight:normal;font-stretch:normal;font-family:Montserrat;-inkscape-font-specification:Montserrat;fill:#1a1a1a;fill-opacity:1"><rect
           id="rect6127"
           width="347.79932"
           height="55.566326"
           x="94"
           y="274.51965"
           style="font-style:normal;font-variant:normal;font-weight:normal;font-stretch:normal;font-family:Montserrat;-inkscape-font-specification:Montserrat;fill:#1a1a1a;fill-opacity:1" /></flowRegion><flowPara
         id="flowPara6131">Contraintes</flowPara></flowRoot>  </g>
  <g
     inkscape:groupmode="layer"
     id="layer8"
     inkscape:label="Schema">
    <g
       sodipodi:type="inkscape:box3d"
       id="g6549"
       style="fill:#c2ffdb;fill-opacity:1;stroke:none;stroke-width:3.77952766;stroke-miterlimit:4;stroke-dasharray:none;stroke-opacity:1"
       inkscape:perspectiveID="#perspective6547"
       inkscape:corner0="0.32993181 : -0.007165482 : 0 : 1"
       inkscape:corner7="0.24441513 : -0.077091652 : 0.25 : 1">
      <path
         sodipodi:type="inkscape:box3dside"
         id="path6551"
         style="fill:#353564;fill-rule:evenodd;stroke:none;stroke-width:1.21221602;stroke-linejoin:round"
         inkscape:box3dsidetype="6"
         d="m 181.65728,194.87752 v 16.8637 l 13.30168,-4.83081 v -14.19528 z"
         points="181.65728,211.74122 194.95896,206.91041 194.95896,192.71513 181.65728,194.87752 " />
      <path
         sodipodi:type="inkscape:box3dside"
         id="path6559"
         style="fill:#afafde;fill-rule:evenodd;stroke:none;stroke-width:1.21221602;stroke-linejoin:round"
         inkscape:box3dsidetype="13"
         d="m 181.65728,211.74122 3.48031,2.09799 13.48064,-5.45822 -3.65927,-1.47058 z"
         points="185.13759,213.83921 198.61823,208.38099 194.95896,206.91041 181.65728,211.74122 " />
      <path
         sodipodi:type="inkscape:box3dside"
         id="path6561"
         style="fill:#e9e9ff;fill-rule:evenodd;stroke:none;stroke-width:1.21221602;stroke-linejoin:round"
         inkscape:box3dsidetype="11"
         d="m 194.95896,192.71513 3.65927,0.65827 v 15.00759 l -3.65927,-1.47058 z"
         points="198.61823,193.3734 198.61823,208.38099 194.95896,206.91041 194.95896,192.71513 " />
      <path
         sodipodi:type="inkscape:box3dside"
         id="path6553"
         style="fill:#4d4d9f;fill-rule:evenodd;stroke:none;stroke-width:1.21221602;stroke-linejoin:round"
         inkscape:box3dsidetype="5"
         d="m 181.65728,194.87752 3.48031,0.93911 13.48064,-2.44323 -3.65927,-0.65827 z"
         points="185.13759,195.81663 198.61823,193.3734 194.95896,192.71513 181.65728,194.87752 " />
      <path
         sodipodi:type="inkscape:box3dside"
         id="path6557"
         style="fill:#d7d7ff;fill-rule:evenodd;stroke:none;stroke-width:1.21221602;stroke-linejoin:round"
         inkscape:box3dsidetype="14"
         d="m 185.13759,195.81663 v 18.02258 l 13.48064,-5.45822 V 193.3734 Z"
         points="185.13759,213.83921 198.61823,208.38099 198.61823,193.3734 185.13759,195.81663 " />
      <path
         sodipodi:type="inkscape:box3dside"
         id="path6555"
         style="fill:#8686bf;fill-rule:evenodd;stroke:none;stroke-width:1.21221602;stroke-linejoin:round"
         inkscape:box3dsidetype="3"
         d="m 181.65728,194.87752 3.48031,0.93911 v 18.02258 l -3.48031,-2.09799 z"
         points="185.13759,195.81663 185.13759,213.83921 181.65728,211.74122 181.65728,194.87752 " />
    </g>
    <g
       id="g6574"
       transform="matrix(0,0.00100939,0.00100939,0,201.8894,195.67183)"
       style="fill:#000000;stroke:none">
      <path
         id="path6566"
         d="m 5930,10719 c -231,-10 -379,-25 -660,-65 -106,-16 -600,-112 -720,-140 -126,-30 -628,-192 -915,-294 C 3122,10037 2534,9732 2020,9382 1536,9053 975,8571 892,8414 c -84,-161 -80,-365 10,-537 38,-73 161,-201 232,-242 172,-100 356,-107 531,-21 76,38 119,73 306,245 451,415 1062,823 1617,1080 391,182 1056,407 1442,490 414,88 954,141 1440,141 520,0 861,-44 1515,-195 433,-100 887,-263 1312,-472 625,-307 1138,-661 1656,-1141 121,-112 202,-160 315,-187 136,-33 299,-4 423,76 128,83 228,217 264,355 9,34 15,101 15,165 0,127 -21,206 -74,283 -59,85 -414,407 -691,627 -765,606 -1706,1084 -2660,1353 -441,124 -735,184 -1130,231 -71,8 -184,22 -250,30 -290,34 -785,44 -1235,24 z"
         inkscape:connector-curvature="0" />
      <path
         id="path6568"
         d="m 6095,8609 c -219,-11 -356,-27 -570,-66 -501,-91 -760,-158 -1093,-282 -733,-275 -1433,-715 -1943,-1221 -150,-149 -178,-192 -206,-323 -31,-148 0,-300 88,-432 94,-141 212,-226 367,-266 95,-24 159,-24 256,1 106,27 163,60 274,160 375,338 582,493 897,675 657,380 1485,605 2225,605 256,0 642,-41 915,-96 801,-163 1551,-552 2186,-1134 149,-137 212,-178 316,-205 122,-32 284,-12 396,47 80,43 203,161 250,239 119,202 106,454 -33,634 -44,57 -323,312 -470,429 -847,679 -1878,1098 -2985,1216 -262,27 -573,34 -870,19 z"
         inkscape:connector-curvature="0" />
      <path
         id="path6570"
         d="m 6145,6494 c -102,-9 -344,-45 -460,-70 -511,-109 -994,-325 -1394,-624 -151,-113 -382,-320 -448,-402 -166,-206 -172,-446 -18,-678 178,-268 514,-348 770,-185 28,17 104,81 170,141 149,135 223,194 344,273 305,200 624,318 992,366 153,20 494,20 641,-1 392,-54 775,-218 1123,-479 39,-29 130,-107 203,-174 187,-171 270,-207 452,-199 155,7 274,60 386,173 185,184 234,440 128,665 -30,64 -53,92 -157,195 -472,464 -1084,789 -1752,929 -256,53 -394,68 -670,71 -143,1 -282,1 -310,-1 z"
         inkscape:connector-curvature="0" />
      <path
         id="path6572"
         d="m 6255,4530 c -415,-59 -769,-316 -961,-697 -145,-287 -165,-642 -53,-946 157,-425 547,-746 983,-806 99,-14 273,-14 373,0 448,62 867,437 998,894 56,195 56,465 0,660 -147,508 -625,881 -1150,899 -71,3 -157,1 -190,-4 z"
         inkscape:connector-curvature="0" />
    </g>
    <g
       id="g6591"
       transform="matrix(0.00220444,0,0,-0.00220444,215.97334,216.3068)"
       style="display:inline;fill:#000000;stroke:none">
      <path
         id="path6589"
         d="m 3349,11509 c -365,-4 -675,-12 -730,-18 -137,-17 -242,-46 -344,-96 -163,-79 -274,-190 -350,-350 -84,-176 -94,-265 -95,-790 -1,-327 -3,-393 -15,-409 -22,-29 -22,-643 0,-672 21,-28 21,-380 0,-408 -22,-29 -22,-641 0,-673 13,-18 15,-398 18,-3109 l 2,-3089 23,-85 c 67,-249 220,-427 452,-525 35,-15 111,-40 169,-55 58,-16 97,-29 86,-29 -15,-1 -16,-4 -7,-13 10,-10 376,-13 1760,-13 961,0 1760,4 1776,8 19,5 26,11 18,16 -7,4 29,17 81,29 341,83 541,265 629,577 l 23,80 3,3141 c 2,2767 4,3143 17,3154 22,18 22,671 0,690 -12,10 -15,145 -17,963 l -3,952 -27,95 c -33,121 -67,197 -123,275 -133,187 -346,301 -627,335 -47,6 -437,15 -865,20 -840,10 -901,10 -1854,-1 z M 6655,6320 V 2205 H 4335 2015 l -3,4109 c -2,3281 0,4111 10,4118 7,4 1053,7 2323,5 l 2310,-2 z"
         inkscape:connector-curvature="0" />
    </g>
  </g>
  <g
     inkscape:groupmode="layer"
     id="layer2"
     inkscape:label="Titre"
     style="display:inline">
    <flowRoot
       xml:space="preserve"
       id="flowRoot81"
       style="font-style:normal;font-weight:normal;font-size:40px;line-height:1.25;font-family:sans-serif;letter-spacing:0px;word-spacing:0px;fill:#000000;fill-opacity:1;stroke:none"
       transform="matrix(0.26458333,0,0,0.26458333,-39.6875,3.4245967)"><flowRegion
         id="flowRegion83"><rect
           id="rect85"
           width="758.84241"
           height="502.28711"
           x="558"
           y="14.519653" /></flowRegion><flowPara
         id="flowPara87"
         style="font-style:normal;font-variant:normal;font-weight:normal;font-stretch:normal;font-size:46.66666794px;font-family:Montserrat;-inkscape-font-specification:Montserrat;text-align:center;text-anchor:middle;fill:#ffffff">Objets Connectés à l'hydroponie</flowPara><flowPara
         style="font-style:normal;font-variant:normal;font-weight:normal;font-stretch:normal;font-family:Montserrat;-inkscape-font-specification:Montserrat;text-align:center;text-anchor:middle;fill:#ffffff"
         id="flowPara89">DMEther</flowPara><flowPara
         style="font-style:normal;font-variant:normal;font-weight:normal;font-stretch:normal;font-size:26.66666794px;font-family:Montserrat;-inkscape-font-specification:Montserrat;text-align:center;text-anchor:middle;fill:#ffffff"
         id="flowPara91">Dispotitif de Monitoring Ether</flowPara></flowRoot>    <g
       id="g6268"
       transform="matrix(-0.06671523,0,0,0.06671523,72.580982,7.8583571)">
      <path
         style="fill:#00a651;fill-opacity:1"
         inkscape:connector-curvature="0"
         d="m -1441.1183,289.3959 33.9638,-3.25937 a 429.46111,429.46111 0 0 0 23.0843,-42.54861 l -15.0309,-3.3834 17.3895,-1.66874 c 8.3388,-18.14481 12.712,-30.68861 12.712,-30.68861 0,0 -69.001,7.23818 -125.3289,36.01769 l -14.0434,41.47054 0.3194,-33.84639 a 173.75069,173.75069 0 0 0 -17.9748,12.39694 c -57.5773,45.61384 -89.3556,101.39577 -70.9788,124.59241 18.3769,23.19665 79.9498,5.02385 137.5272,-40.58999 17.8495,-14.14071 33.3249,-32.97317 46.1865,-52.2288 z"
         id="path6271" />
      <g
         id="g6345"
         transform="matrix(-1.125142,0,0,1.125142,-3787.6904,16.4943)" />
      <path
         id="path6347"
         d="m -2586.9066,261.68455 -8.9461,-32.92626 a 429.46111,429.46111 0 0 0 -45.8348,-15.57039 l -0.7975,15.38634 -4.5803,-16.85824 c -19.2921,-5.15611 -32.3941,-7.34903 -32.3941,-7.34903 0,0 18.7823,66.78887 56.6575,117.45023 l 43.2461,6.84123 -33.4146,5.39878 a 173.75069,173.75069 0 0 0 15.2534,15.62411 c 54.6788,49.05093 115.0247,70.95664 134.7862,48.92776 19.7616,-22.02899 -8.5445,-79.65049 -63.2234,-128.70152 -16.9509,-15.20625 -38.1255,-27.28055 -59.276,-36.70703 z"
         inkscape:connector-curvature="0"
         style="fill:#00a651;fill-opacity:1" />
    </g>
    <g
       style=""
       id="g6492">
      <path
         style="display:inline;fill:#3f3d56"
         inkscape:connector-curvature="0"
         d="m 716.90315,150.96312 v 544.618 A 42.97183,42.97183 0 0 1 673.94,738.54432 H 462.29542 a 42.97566,42.97566 0 0 1 -42.981,-42.96323 v -544.618 A 42.97564,42.97564 0 0 1 462.29542,108 h 25.6739 a 20.43229,20.43229 0 0 0 18.90173,28.12853 H 627.53691 A 20.43206,20.43206 0 0 0 646.43853,108 H 673.94 a 42.97181,42.97181 0 0 1 42.96315,42.96312 z"
         transform="matrix(0.07506411,0,0,0.07506411,310.70767,0.85185454)"
         id="path6277" />
      <path
         style="display:inline;fill:#ffffff"
         inkscape:connector-curvature="0"
         d="m 649.18119,352.01621 c 0,0 -21.60513,1.19128 -41.77884,12.88649 0.57694,-23.56592 -9.04473,-43.3394 -9.04473,-43.3394 0,0 -19.47162,13.0287 -30.73493,34.8927 -11.26316,-21.864 -30.73494,-34.89272 -30.73494,-34.89272 0,0 -9.62167,19.77348 -9.04462,43.3394 -20.17371,-11.69521 -41.77883,-12.88649 -41.77883,-12.88649 0,0 2.75086,33.70231 25.27257,55.62631 20.04533,19.51333 48.97563,23.11648 55.09989,23.67363 0.10214,0.0703 0.17333,0.11865 0.17333,0.11865 0,0 0.0172,-0.0353 0.0471,-0.0985 0.62079,0.0541 0.96547,0.0738 0.96547,0.0738 0,0 -0.0547,-0.64682 -0.20056,-1.78747 0.0646,-0.1508 0.12981,-0.304 0.20067,-0.47273 0.0709,0.16862 0.13592,0.32171 0.20055,0.47251 -0.14588,1.14076 -0.20066,1.78769 -0.20066,1.78769 0,0 0.34467,-0.0198 0.96558,-0.0739 0.03,0.0632 0.0471,0.0986 0.0471,0.0986 0,0 0.0712,-0.0483 0.17332,-0.11865 6.12459,-0.55715 35.05456,-4.16041 55.09978,-23.67363 22.52182,-21.92398 25.27269,-55.62629 25.27269,-55.62629 z"
         transform="matrix(0.07506411,0,0,0.07506411,310.70767,0.85185454)"
         id="path6279" />
      <circle
         style="display:inline;fill:#ffffff"
         cx="374.09827"
         cy="154.6351"
         r="23.291121"
         id="circle6281"
         transform="matrix(0.07506411,0,0,0.07506411,325.27761,8.9587782)" />
      <rect
         style="display:inline;fill:#00a651;fill-opacity:1"
         x="310.8222"
         y="396.7699"
         width="125.41371"
         height="125.41371"
         id="rect6283"
         transform="matrix(0.07506411,0,0,0.07506411,325.27761,8.9587782)" />
      <polyline
         style="display:inline;fill:#00a651;fill-opacity:1"
         points="326.947 558.016 326.947 547.266 420.111 547.266 420.111 558.016"
         id="polyline6285"
         transform="matrix(0.07506411,0,0,0.07506411,325.27761,8.9587782)" />
      <path
         style="display:inline;fill:#a0616a"
         inkscape:connector-curvature="0"
         d="m 890.77793,337.608 2.54414,26.71339 c 0,0 -1.27207,64.87539 -2.54414,68.69161 a 84.70344,84.70344 0 0 1 -3.8162,8.90447 l -13.99273,-38.162 v -63.60334 z"
         transform="matrix(0.07506411,0,0,0.07506411,310.70767,0.85185454)"
         id="path6287" />
      <polygon
         style="display:inline;fill:#a0616a"
         points="573.287,597.235 575.832,623.949 597.457,621.404 592.368,594.691 "
         id="polygon6289"
         transform="matrix(0.07506411,0,0,0.07506411,325.27761,8.9587782)" />
      <path
         style="display:inline;fill:#2f2e41"
         inkscape:connector-curvature="0"
         d="m 777.564,717.95587 c 0,0 -8.90447,0 -10.17654,5.08827 -1.27207,5.08827 -11.44859,33.07373 -11.44859,33.07373 0,0 -15.2648,33.07373 7.6324,35.61786 22.8972,2.54413 30.52959,-13.99273 30.52959,-19.081 0,-5.08827 1.27207,-20.35306 2.54413,-21.62513 1.27206,-1.27207 5.08827,-11.4486 2.54414,-12.72066 -2.54413,-1.27206 -7.6324,-12.68561 -7.6324,-12.68561 0,0 -5.08825,-10.21159 -13.99273,-7.66746 z"
         transform="matrix(0.07506411,0,0,0.07506411,310.70767,0.85185454)"
         id="path6291" />
      <polygon
         style="display:inline;fill:#a0616a"
         points="705.582,611.493 712.678,649.39 738.02,632.164 727.883,608.048 "
         id="polygon6293"
         transform="matrix(0.07506411,0,0,0.07506411,325.27761,8.9587782)" />
      <path
         style="display:inline;fill:#2f2e41"
         inkscape:connector-curvature="0"
         d="m 911.82087,748.673 c 0,0 -11.18126,-10.06314 -10.06313,-3.35438 1.11813,6.70876 0,42.48878 7.82688,42.48878 7.82688,0 100.63128,-13.41751 96.15878,-23.48064 -4.4725,-10.06313 -27.95311,-14.53564 -27.95311,-14.53564 0,0 -46.96128,-24.59876 -49.19753,-17.89 -2.23625,6.70876 -4.47251,8.945 -4.47251,8.945 z"
         transform="matrix(0.07506411,0,0,0.07506411,310.70767,0.85185454)"
         id="path6295" />
      <circle
         style="display:inline;fill:#a0616a"
         cx="654.69971"
         cy="69.327621"
         r="34.345791"
         id="circle6297"
         transform="matrix(0.07506411,0,0,0.07506411,325.27761,8.9587782)" />
      <path
         style="display:inline;fill:#a0616a"
         inkscape:connector-curvature="0"
         d="m 830.99081,200.22482 c 0,0 2.54413,21.62513 -24.16926,29.25753 -26.71339,7.6324 64.87539,35.61786 71.23572,21.62513 0,0 -11.4486,-13.99273 -8.90447,-27.98546 2.54413,-13.99273 0,-33.07373 0,-33.07373 z"
         transform="matrix(0.07506411,0,0,0.07506411,310.70767,0.85185454)"
         id="path6299" />
      <path
         style="display:inline;fill:#575a89"
         inkscape:connector-curvature="0"
         d="m 890.77793,262.55608 c 0,0 15.2648,1.27206 16.53687,8.90446 1.27207,7.6324 0,30.5296 0,30.5296 0,0 10.17653,30.52959 0,38.162 -10.17653,7.63241 -36.88993,8.90447 -36.88993,8.90447 z"
         transform="matrix(0.07506411,0,0,0.07506411,310.70767,0.85185454)"
         id="path6301" />
      <path
         style="display:inline;fill:#2f2e41"
         inkscape:connector-curvature="0"
         d="m 761.02715,435.55712 -13.99273,22.89719 c 0,0 3.8162,8.90447 2.54413,15.2648 -1.27207,6.36033 -1.27206,10.17653 0,12.72067 1.27206,2.54414 6.36034,57.243 5.08827,63.60332 -1.27207,6.36032 -2.54413,8.90446 -1.27207,11.4486 1.27206,2.54414 1.27207,2.54413 1.27207,5.08826 v 13.99273 l 3.8162,122.11839 c 0,0 -10.17653,5.08826 2.54413,8.90446 12.72066,3.8162 29.25753,5.08827 31.80166,-7.6324 2.54413,-12.72067 -2.54413,-104.30945 0,-106.85358 2.54413,-2.54413 5.08827,1.27207 3.8162,-5.08827 a 57.63242,57.63242 0 0 1 -1.27206,-10.17653 l 1.27206,-5.08826 20.35307,-75.05193 L 864.06454,606.014 892.05,723.04414 c 0,0 47.06646,0 39.43406,-16.53686 -7.6324,-16.53686 -30.5296,-134.83905 -30.5296,-134.83905 0,0 1.27207,-5.08827 0,-8.90447 -1.27207,-3.8162 -3.8162,-3.8162 -3.8162,-6.36033 0,-2.54413 -1.27206,-3.8162 -1.27206,-6.36033 0,-2.54413 -1.27207,-10.17653 -1.27207,-10.17653 l -8.90446,-80.14019 z"
         transform="matrix(0.07506411,0,0,0.07506411,310.70767,0.85185454)"
         id="path6303" />
      <path
         style="display:inline;fill:#2f2e41"
         inkscape:connector-curvature="0"
         d="m 824.57739,153.59436 a 12.55347,12.55347 0 0 1 -5.90816,-0.88151 c -1.79288,-0.91322 -3.13013,-3.061 -2.43577,-4.94944 l 2.32578,-0.39845 -1.34756,-4.892 2.87476,-0.34367 0.009,-5.12451 3.4876,0.26311 -1.299,-6.28052 c 12.45321,-3.51371 25.40478,-6.75495 38.20784,-4.88139 12.80306,1.87356 25.52091,10.08812 28.85678,22.59014 1.732,6.49089 0.81149,13.402 -0.82995,19.91637 -3.3011,13.10112 -6.96214,25.46213 -15.49585,35.93651 -0.29853,-5.66266 -3.1412,-11.32533 -3.43973,-16.988 a 30.44423,30.44423 0 0 0 -1.08453,-7.76089 c -1.49436,-4.64372 -5.08431,-8.25 -7.84433,-12.27247 -2.32063,-3.38216 -3.00313,-6.46778 -3.47625,-10.4145 -0.56282,-4.695 -1.47515,-3.9239 -6.48779,-3.85582 q -13.05632,0.17733 -26.11284,0.33704 z"
         transform="matrix(0.07506411,0,0,0.07506411,310.70767,0.85185454)"
         id="path6305" />
      <path
         style="display:inline;fill:#575a89"
         inkscape:connector-curvature="0"
         d="m 814.45394,223.122 c 0,0 10.2987,28.208 57.30408,17.28418 0,0 31.74058,20.87781 33.01264,25.96608 1.27206,5.08827 -24.16926,69.96365 -24.16926,69.96365 l -2.54413,49.61059 c 0,0 16.53686,36.88993 13.99273,61.05919 -2.54413,24.16926 15.2648,25.44133 -7.6324,26.7134 -19.87739,1.1043 -100.36185,-25.06371 -120.21028,-36.25389 -3.01541,-1.7 -10.0438,5.79437 -9.5405,4.45223 3.8162,-10.17653 0,-8.90447 3.8162,-11.4486 3.8162,-2.54413 10.17653,-91.58879 10.17653,-91.58879 0,0 -7.6324,-96.67705 1.27207,-99.22118 8.90447,-2.54413 44.52232,-16.53686 44.52232,-16.53686 z"
         transform="matrix(0.07506411,0,0,0.07506411,310.70767,0.85185454)"
         id="path6307" />
      <polygon
         style="display:inline;fill:#a0616a"
         points="582.192,220.704 546.574,207.983 540.214,246.145 550.39,337.734 556.751,347.91 568.835,330.737 568.199,260.138 "
         id="polygon6309"
         transform="matrix(0.07506411,0,0,0.07506411,325.27761,8.9587782)" />
      <path
         style="display:inline;fill:#575a89"
         inkscape:connector-curvature="0"
         d="m 773.74782,240.931 c 0,0 -15.2648,-1.27207 -19.081,11.44859 -3.8162,12.72066 -35.61782,61.05915 -29.25753,66.14741 6.36029,5.08826 54.69886,22.8972 55.97093,21.62513 1.27207,-1.27207 -7.6324,-99.22113 -7.6324,-99.22113 z"
         transform="matrix(0.07506411,0,0,0.07506411,310.70767,0.85185454)"
         id="path6311" />
      <path
         style="display:inline;fill:#d0cde1"
         inkscape:connector-curvature="0"
         d="m 331.33511,727.81959 c 0,0 -40.14649,-74.10248 -137.23506,-42.06014 z"
         transform="matrix(0.07506411,0,0,0.07506411,310.70767,0.85185454)"
         id="path6313" />
      <path
         style="display:inline;fill:#d0cde1"
         inkscape:connector-curvature="0"
         d="m 333.75583,726.00876 c 0,0 -49.649,-63.10881 22.0118,-141.83793 z"
         transform="matrix(0.07506411,0,0,0.07506411,310.70767,0.85185454)"
         id="path6315" />
    </g>
    <g
       id="g6731"
       transform="matrix(0.06829705,0,0,0.06829705,27.941754,8.3094697)">
      <circle
         id="circle6607"
         r="46"
         cy="694.99902"
         cx="698"
         style="fill:#3f3d56" />
      <path
         id="path6609"
         transform="translate(-68,-79)"
         d="m 766.19141,787.84764 -23.02,-23.02 a 4.0002622,4.0002622 0 0 1 5.65722,-5.65723 l 16.98,16.98 54.18409,-61.78857 a 3.999853,3.999853 0 1 1 6.01464,5.27441 z"
         inkscape:connector-curvature="0"
         style="fill:#00a651;fill-opacity:1" />
      <rect
         id="rect6611"
         height="580.03998"
         width="488"
         y="31.47998"
         x="254"
         style="fill:#3f3d56" />
      <path
         id="path6613"
         d="M 469.967,159.49442 H 587.99523 V 341.011 H 441.89649 V 187.56491 A 28.07049,28.07049 0 0 1 469.967,159.49442 Z"
         inkscape:connector-curvature="0"
         style="fill:#2f2e41" />
      <path
         id="path6615"
         transform="translate(-68,-79)"
         d="m 520.60938,375.38325 c 0,0 -27.2275,-1.70171 -45.94641,15.31547 -18.71891,17.01718 -23.82406,23.82406 -23.82406,23.82406 0,0 -96.998,57.85844 -61.26187,78.27907 35.73613,20.42063 79.98078,45.9464 79.98078,45.9464 0,0 0,51.05156 18.7189,49.34984 18.7189,-1.70172 1.70172,-59.56015 1.70172,-59.56015 l -64.66531,-49.34984 64.66531,-37.43782 22.12234,22.12235 c 0,0 18.71891,-68.06875 8.5086,-88.48938 z"
         inkscape:connector-curvature="0"
         style="fill:#ffb8b8" />
      <path
         id="path6617"
         transform="translate(-68,-79)"
         d="m 683.18739,690.52 h -292.62 c 17.46,-70.41 54.36,-110.74 80.51,-131.5 a 167.06573,167.06573 0 0 1 22.65,-15.29 c 4.09,-2.27 6.46,-3.28 6.46,-3.28 l 1.58,-9.49 1.81994,-10.93 117.42,27.23 -0.88,9.63995 -0.82,9.08 z"
         inkscape:connector-curvature="0"
         style="fill:#2f2e41" />
      <path
         id="path6619"
         transform="translate(-68,-79)"
         d="m 660.15031,411.11935 c 0,0 32.33266,10.21031 28.92922,39.13953 -3.40344,28.92922 -11.912,131.03234 -11.912,131.03234 l 47.64812,103.80484 c 0,0 49.34985,57.85844 20.42063,68.06875 -28.92922,10.21031 -44.24469,-64.66531 -44.24469,-64.66531 l -64.66531,-95.29625 5.10516,-102.10312 5.10515,-56.15672 z"
         inkscape:connector-curvature="0"
         style="fill:#ffb8b8" />
      <circle
         id="circle6621"
         r="51.051559"
         cy="212.99904"
         cx="522.37982"
         style="fill:#ffb8b8" />
      <path
         id="path6623"
         transform="translate(-68,-79)"
         d="m 566.55578,322.63 c 0,0 23.82406,44.24469 -35.73609,54.455 l -6.80687,34.03438 56.15671,100.4014 66.367,-57.85843 13.61375,-39.13954 c 0,0 -66.367,-30.63093 -42.543,-91.89281 z"
         inkscape:connector-curvature="0"
         style="fill:#ffb8b8" />
      <path
         id="path6625"
         transform="translate(-68,-79)"
         d="m 585.27469,474.08294 -42.543,-57.85844 -11.912,-45.9464 h -20.42062 l 6.80687,51.05156 -9.641,15.15017 a 60.1776,60.1776 0 0 0 -7.37617,47.8134 v 0 l -1.70177,45.94643 124.22547,27.2275 18.71891,-30.63094 c 0,0 0.66178,-0.4727 1.74111,-1.37871 A 45.45643,45.45643 0 0 0 655.93781,473.762 l -5.99781,-14.99453 22.12234,-49.34984 -20.42062,-6.80688 -17.01719,44.24469 z"
         inkscape:connector-curvature="0"
         style="fill:#00a651;fill-opacity:1" />
      <path
         id="path6627"
         transform="translate(-68,-79)"
         d="m 594.014,208.04064 c 0,0 -57.55405,-3.56791 -70.83575,32.22179 -13.2817,35.7897 -36.52469,54.5793 -36.52469,54.5793 0,0 -36.61336,25.4505 -18.30668,70.88352 0,0 -56.9563,38.27508 -19.32481,72.2753 0,0 -2.21362,34.00022 19.92255,57.26352 0,0 17.70894,8.94743 11.06809,14.31589 -6.64085,5.36846 44.27234,1.78948 39.84511,-46.52662 -4.42723,-48.3161 25.4566,-82.35056 25.4566,-82.35056 0,0 -28.777,-62.64363 -15.49532,-84.11745 8.06389,-13.03768 11.5269,-22.76022 18.2211,-28.38717 a 83.97922,83.97922 0 0 0 10.334,-10.08523 c 4.12235,-4.8978 12.46667,-11.56849 25.67856,-8.00833 19.92255,5.36845 24.34979,21.47382 24.34979,21.47382 0,0 14.38851,38.47393 38.7383,56.36879 24.34979,17.89486 -18.81585,49.21084 -18.81585,49.21084 0,0 7.50315,36.87 26.99455,58.6984 19.4914,21.8284 -5.61718,40.85565 -7.072,43.30226 -3.32043,5.58408 -16.58081,40.84576 38.19555,41.002 0,0 12.71764,-26.68608 30.42658,-42.79145 17.70894,-16.10537 4.42723,-62.632 4.42723,-62.632 0,0 26.56341,-16.10537 -2.21361,-55.474 0,0 8.85447,-35.78971 -15.49532,-59.053 2e-5,-8e-5 -34.31105,-104.69601 -109.57398,-92.16962 z"
         inkscape:connector-curvature="0"
         style="fill:#2f2e41" />
      <ellipse
         id="ellipse6629"
         ry="9.7663097"
         rx="6.10394"
         cy="214.08957"
         cx="470.30124"
         style="fill:#ffb8b8" />
      <rect
         id="rect6631"
         height="581"
         width="265"
         y="31"
         x="1"
         style="fill:#d0cde1" />
      <rect
         id="rect6633"
         height="581"
         width="265"
         y="31"
         x="734"
         style="fill:#d0cde1" />
      <rect
         id="rect6635"
         height="2"
         width="163"
         y="740"
         x="617"
         style="fill:#3f3d56" />
      <path
         id="path6637"
         transform="translate(-68,-79)"
         d="m 947.42862,434.66067 c -21.76581,0.4669 -39.08024,16.24012 -39.08024,16.24012 0,0 17.9749,15.01622 39.74071,14.54931 21.76581,-0.46691 39.08024,-16.2401 39.08024,-16.2401 0,0 -17.97491,-15.01623 -39.74071,-14.54933 z"
         inkscape:connector-curvature="0"
         style="fill:#00a651;fill-opacity:1" />
      <path
         id="path6639"
         transform="translate(-68,-79)"
         d="m 1056.856,360.36268 c -19.6645,9.34222 -42.2133,3.00713 -42.2133,3.00713 0,0 9.3335,-21.48183 28.998,-30.824 19.6645,-9.34217 42.2133,-3.00713 42.2133,-3.00713 0,0 -9.3336,21.48178 -28.998,30.824 z"
         inkscape:connector-curvature="0"
         style="fill:#00a651;fill-opacity:1" />
      <path
         id="path6641"
         transform="translate(-68,-79)"
         d="m 1054.857,351.0789 c -21.6805,-1.98136 -40.6573,11.74679 -40.6573,11.74679 0,0 16.1741,16.94057 37.8545,18.92192 21.6805,1.98135 40.6574,-11.74679 40.6574,-11.74679 0,0 -16.1741,-16.94056 -37.8546,-18.92192 z"
         inkscape:connector-curvature="0"
         style="fill:#3f3d56" />
      <path
         id="path6643"
         transform="translate(-68,-79)"
         d="m 975.38322,354.83251 c 2.07806,21.67141 -11.56529,40.70935 -11.56529,40.70935 0,0 -17.01255,-16.09836 -19.09062,-37.76976 -2.07807,-21.6714 11.56529,-40.70935 11.56529,-40.70935 0,0 17.01255,16.09835 19.09062,37.76976 z"
         inkscape:connector-curvature="0"
         style="fill:#3f3d56" />
      <path
         id="path6645"
         transform="translate(-68,-79)"
         d="m 873.279,487.7426 c 11.37152,18.56494 7.45917,41.65774 7.45917,41.65774 0,0 -22.34921,-7.00691 -33.72073,-25.57185 -11.37152,-18.56494 -7.45916,-41.65774 -7.45916,-41.65774 0,0 22.34917,7.00691 33.72072,25.57185 z"
         inkscape:connector-curvature="0"
         style="fill:#3f3d56" />
      <path
         id="path6647"
         transform="translate(-68,-79)"
         d="m 906.26918,689.59119 -1.65722,-1.12011 A 51.9189,51.9189 0 0 0 913.775,659.6786 c -0.0464,-15.05762 -7.44238,-28.98487 -14.59521,-42.45362 -1.32764,-2.5 -2.65088,-4.99218 -3.92383,-7.48242 A 163.33418,163.33418 0 0 1 882.5519,577.85 c -11.09473,-41.23 -0.17139,-89.87353 29.21923,-130.12207 23.31543,-31.92871 58.07178,-59.84863 106.25387,-85.35547 l 0.9356,1.76758 c -47.90773,25.36133 -82.44142,53.08936 -105.57423,84.76758 -29.03711,39.76367 -39.8418,87.77246 -28.90283,128.42285 a 161.39429,161.39429 0 0 0 12.55273,31.50195 c 1.269,2.481 2.5874,4.96338 3.91016,7.45459 7.2666,13.6836 14.78076,27.833 14.82861,43.38575 a 53.937,53.937 0 0 1 -9.50586,29.91843 z"
         inkscape:connector-curvature="0"
         style="fill:#3f3d56" />
      <circle
         id="circle6649"
         r="19"
         cy="267.0004"
         cx="1044.9996"
         style="fill:#3f3d56" />
      <path
         id="path6651"
         transform="translate(-68,-79)"
         d="M 1068,111 H 68 V 79 H 1068 Z M 70,109 h 996 V 81 H 70 Z"
         inkscape:connector-curvature="0"
         style="fill:#3f3d56" />
      <path
         id="path6653"
         transform="translate(-68,-79)"
         d="m 90,105 a 10,10 0 1 1 10,-10 10.01114,10.01114 0 0 1 -10,10 z m 0,-18 a 8,8 0 1 0 8,8 8.00917,8.00917 0 0 0 -8,-8 z"
         inkscape:connector-curvature="0"
         style="fill:#3f3d56" />
      <path
         id="path6655"
         transform="translate(-68,-79)"
         d="m 117,105 a 10,10 0 1 1 10,-10 10.01114,10.01114 0 0 1 -10,10 z m 0,-18 a 8,8 0 1 0 8,8 8.00917,8.00917 0 0 0 -8,-8 z"
         inkscape:connector-curvature="0"
         style="fill:#3f3d56" />
      <path
         id="path6657"
         transform="translate(-68,-79)"
         d="m 144,105 a 10,10 0 1 1 10,-10 10.01114,10.01114 0 0 1 -10,10 z m 0,-18 a 8,8 0 1 0 8,8 8.00917,8.00917 0 0 0 -8,-8 z"
         inkscape:connector-curvature="0"
         style="fill:#3f3d56" />
      <rect
         id="rect6659"
         height="41"
         width="224.5"
         y="444"
         x="13.5"
         style="fill:#00a651;fill-opacity:1" />
      <path
         id="path6661"
         transform="translate(-68,-79)"
         d="m 322.5,565 h -242 v -55 h 242 z m -240,-2 h 238 v -51 h -238 z"
         inkscape:connector-curvature="0"
         style="fill:#3f3d56" />
      <path
         id="path6663"
         transform="translate(-68,-79)"
         d="m 227.35913,234.19344 c -5.68507,21.01543 -25.15771,34.03081 -25.15771,34.03081 0,0 -10.25532,-21.05736 -4.57026,-42.07279 5.68506,-21.01543 25.15772,-34.03081 25.15772,-34.03081 0,0 10.25532,21.05735 4.57025,42.07279 z"
         inkscape:connector-curvature="0"
         style="fill:#00a651;fill-opacity:1" />
      <path
         id="path6665"
         transform="translate(-68,-79)"
         d="m 175.64087,234.19344 c 5.68507,21.01543 25.15771,34.03081 25.15771,34.03081 0,0 10.25532,-21.05736 4.57026,-42.07279 -5.68506,-21.01543 -25.15772,-34.03081 -25.15772,-34.03081 0,0 -10.25532,21.05735 -4.57025,42.07279 z"
         inkscape:connector-curvature="0"
         style="fill:#00a651;fill-opacity:1" />
      <path
         id="path6667"
         transform="translate(-68,-79)"
         d="m 183.99467,229.677 c 15.59991,15.18588 17.50533,38.53012 17.50533,38.53012 0,0 -23.387,-1.27695 -38.987,-16.46283 -15.6,-15.18588 -17.50532,-38.53012 -17.50532,-38.53012 0,0 23.38708,1.27694 38.98699,16.46283 z"
         inkscape:connector-curvature="0"
         style="fill:#3f3d56" />
      <path
         id="path6669"
         transform="translate(-68,-79)"
         d="M 219.00533,229.677 C 203.40542,244.86288 201.5,268.20712 201.5,268.20712 c 0,0 23.387,-1.27695 38.987,-16.46283 15.6,-15.18588 17.50532,-38.53012 17.50532,-38.53012 0,0 -23.38708,1.27694 -38.98699,16.46283 z"
         inkscape:connector-curvature="0"
         style="fill:#3f3d56" />
      <rect
         id="rect6671"
         height="10"
         width="168"
         y="76.5"
         x="49.5"
         style="fill:#3f3d56" />
      <rect
         id="rect6673"
         height="10"
         width="168"
         y="226.5"
         x="49.5"
         style="fill:#3f3d56" />
      <rect
         id="rect6675"
         height="10"
         width="168"
         y="248.5"
         x="49.5"
         style="fill:#3f3d56" />
      <rect
         id="rect6677"
         height="10"
         width="168"
         y="270.5"
         x="49.5"
         style="fill:#3f3d56" />
      <rect
         id="rect6679"
         height="10"
         width="168"
         y="76.5"
         x="782.5"
         style="fill:#3f3d56" />
      <rect
         id="rect6681"
         height="10"
         width="168"
         y="98.5"
         x="782.5"
         style="fill:#3f3d56" />
      <rect
         id="rect6683"
         height="10"
         width="168"
         y="120.5"
         x="782.5"
         style="fill:#3f3d56" />
    </g>
  </g>
</svg>
